<?xml version="1.0" standalone="no"?>
<!DOCTYPE svg PUBLIC "-//W3C//DTD SVG 20010904//EN"
 "http://www.w3.org/TR/2001/REC-SVG-20010904/DTD/svg10.dtd">
<svg version="1.0" xmlns="http://www.w3.org/2000/svg"
 width="468pt" height="345pt" viewBox="0 0 468 345"
 preserveAspectRatio="xMidYMid meet">
<metadata>
Created by potrace 1.8, written by Peter Selinger 2001-2007
</metadata>
<g transform="translate(0,345) scale(0.078000,-0.078000)"
fill="#f2f6f9" stroke="none">
<path d="M4680 3678 c-25 -5 -70 -13 -100 -17 -49 -8 -117 -28 -175 -50 -11
-5 -38 -14 -60 -20 -57 -17 -117 -48 -151 -78 -16 -14 -46 -34 -66 -44 -32
-16 -58 -45 -58 -63 0 -15 48 -3 70 17 60 55 151 106 255 141 115 39 252 74
320 82 55 7 70 13 59 23 -16 15 -48 18 -94 9z"/>
<path d="M4590 3459 c-41 -4 -91 -12 -110 -18 -19 -5 -60 -16 -90 -24 -63 -16
-123 -47 -162 -84 -37 -35 -26 -47 20 -21 66 38 111 58 129 58 10 0 41 7 68
16 162 52 319 48 425 -8 30 -16 59 -34 65 -39 12 -12 45 -12 45 0 0 6 -15 21
-32 34 -102 77 -199 100 -358 86z"/>
<path d="M1570 3365 c-131 -30 -223 -72 -290 -132 -44 -39 -50 -50 -50 -84 0
-43 21 -81 81 -147 86 -93 145 -184 134 -202 -4 -7 -40 -19 -132 -46 -22 -6
-45 -65 -39 -99 7 -36 89 -114 190 -180 34 -22 73 -51 86 -63 14 -13 67 -55
119 -94 l93 -70 -39 -42 c-94 -98 -161 -219 -192 -346 -24 -94 -36 -116 -57
-99 -8 6 -14 18 -14 27 0 17 -4 31 -52 172 -30 90 -46 126 -85 188 -70 111
-147 160 -184 116 -19 -23 -14 -104 8 -150 50 -101 135 -228 212 -319 49 -57
62 -87 41 -100 -5 -3 -10 -26 -10 -50 0 -39 4 -46 30 -60 16 -8 38 -15 48 -15
20 0 42 -37 42 -71 0 -26 37 -184 53 -224 36 -93 122 -204 176 -226 59 -24
119 29 107 94 -10 53 -71 169 -130 247 -31 40 -53 77 -50 82 4 6 -13 30 -37
54 -24 24 -39 44 -34 45 6 1 26 0 45 -1 27 -1 43 7 71 32 30 27 37 42 43 87 6
47 4 58 -19 90 -31 45 -91 81 -135 81 -31 0 -32 2 -26 30 3 17 18 57 33 88 24
49 32 57 59 60 25 2 45 -7 95 -45 108 -82 151 -206 130 -375 -10 -78 -46 -156
-79 -171 -17 -8 -35 -6 -73 7 -27 10 -52 16 -55 14 -10 -11 38 -41 97 -61 45
-16 67 -29 76 -47 9 -18 13 -20 13 -7 0 11 8 17 25 17 18 0 25 -5 25 -20 0
-13 -7 -20 -20 -20 -14 0 -20 -7 -20 -24 0 -15 -10 -30 -26 -41 -19 -12 -23
-20 -15 -28 8 -8 18 -4 37 16 25 27 44 31 51 11 2 -5 -10 -24 -27 -42 -17 -19
-28 -38 -25 -43 8 -12 33 2 64 35 20 21 34 26 72 26 39 0 56 6 95 36 26 20 59
40 73 44 50 14 108 -16 136 -70 12 -24 11 -31 -17 -76 -27 -42 -31 -59 -32
-119 -1 -81 18 -130 65 -170 93 -78 197 -82 285 -10 49 40 69 77 80 144 10 63
-12 123 -67 186 -27 31 -49 60 -49 65 0 5 9 25 21 44 14 24 30 37 52 41 18 4
60 13 95 22 l63 15 47 -46 c26 -25 60 -56 77 -68 16 -13 61 -52 100 -88 38
-36 88 -79 110 -95 22 -17 49 -37 60 -47 11 -9 49 -39 85 -67 36 -28 70 -55
76 -60 40 -34 159 -121 195 -143 70 -44 84 -53 89 -58 3 -3 25 -15 48 -27 65
-34 217 -30 307 7 11 4 47 18 80 30 206 75 265 118 265 192 0 59 -26 97 -99
144 -33 21 -63 46 -66 54 -3 8 4 43 14 77 15 50 29 72 78 120 68 66 85 116 60
176 -13 28 -80 98 -148 151 -39 31 -140 118 -173 150 -17 16 -41 35 -53 43
-33 22 -28 38 15 51 20 6 49 23 64 37 15 14 29 25 32 25 14 0 176 107 206 136
20 19 40 34 46 34 6 0 25 -11 44 -25 50 -37 174 -94 242 -111 56 -15 65 -15
117 1 72 22 91 40 91 81 0 47 -51 121 -164 238 l-95 99 19 26 c37 53 54 138
55 276 0 118 -2 134 -24 177 -25 49 -102 122 -167 158 -57 33 -137 25 -238
-23 -76 -36 -176 -109 -176 -128 0 -20 -54 -89 -69 -89 -10 0 -35 13 -57 29
-21 16 -50 32 -64 36 -14 4 -38 13 -55 20 -68 28 -112 36 -142 23 -36 -15 -73
-48 -73 -64 0 -7 -19 -26 -42 -41 -24 -16 -49 -41 -56 -55 -17 -35 -90 -98
-115 -98 -15 0 -18 5 -13 23 4 12 10 39 13 60 3 21 10 40 14 43 5 3 9 33 9 67
1 54 5 67 30 97 39 45 38 63 -6 96 -32 25 -39 27 -67 16 -28 -11 -34 -9 -81
27 -70 54 -121 77 -196 92 -51 9 -70 18 -91 42 l-25 30 -34 -41 c-18 -23 -39
-42 -47 -42 -17 0 -84 -42 -102 -64 -8 -10 -29 -16 -53 -16 -21 0 -52 -7 -67
-15 -39 -20 -81 -72 -81 -100 0 -40 -17 -38 -83 12 -35 26 -115 84 -178 127
-63 44 -116 83 -119 86 -3 3 -21 17 -40 30 -19 13 -37 27 -40 30 -10 12 -137
87 -182 108 -42 19 -64 22 -170 21 -68 -1 -148 -7 -178 -14z m302 -33 c48 -12
198 -103 263 -157 53 -45 201 -148 347 -244 54 -35 94 -68 105 -89 17 -31 17
-34 0 -81 -21 -59 -22 -171 -3 -209 62 -119 263 -180 483 -148 71 11 141 -13
212 -73 20 -16 86 -69 146 -116 61 -48 130 -103 154 -123 47 -39 169 -136 286
-226 39 -30 84 -67 100 -83 17 -15 55 -48 85 -73 30 -24 62 -52 70 -60 8 -9
49 -43 91 -77 74 -61 104 -103 97 -139 -2 -14 -54 -36 -218 -91 -118 -40 -235
-79 -260 -86 -58 -16 -126 -6 -178 27 -34 21 -216 168 -232 186 -3 4 -61 49
-130 101 -69 52 -138 106 -155 121 -34 30 -158 126 -283 220 -46 35 -110 83
-141 108 -32 25 -71 55 -87 67 -36 26 -117 87 -164 123 -19 14 -98 73 -175
130 -77 58 -142 107 -145 110 -35 40 -321 265 -590 464 -58 43 -123 95 -145
115 -51 48 -125 136 -125 150 0 15 58 56 120 85 84 38 176 63 275 74 98 11
140 9 197 -6z m1220 -209 c7 -6 31 -16 53 -23 22 -7 59 -26 82 -41 32 -22 40
-33 36 -49 -3 -11 1 -28 9 -38 9 -9 18 -29 22 -44 4 -19 15 -30 36 -35 33 -9
30 -18 -16 -51 -25 -17 -48 -22 -119 -24 -83 -2 -89 -1 -104 22 -9 13 -36 44
-61 70 -37 38 -59 50 -121 68 -72 21 -129 61 -129 88 0 9 70 49 115 66 29 10
181 4 197 -9z m-1619 -188 c43 -33 95 -73 115 -88 20 -15 53 -41 73 -57 21
-17 73 -56 117 -88 76 -54 283 -221 382 -307 25 -22 94 -76 154 -120 59 -44
160 -121 225 -171 64 -49 139 -105 166 -124 28 -19 92 -68 144 -109 52 -42
127 -100 165 -130 39 -30 118 -92 176 -138 58 -46 141 -112 184 -146 44 -34
98 -78 120 -98 120 -104 162 -130 229 -141 71 -12 98 -7 197 32 70 28 349 120
363 120 15 0 -33 -39 -68 -55 -16 -8 -61 -26 -100 -40 -38 -14 -106 -40 -150
-56 -138 -52 -174 -61 -225 -54 -84 12 -211 87 -319 188 -25 24 -66 58 -91 77
-25 19 -47 38 -50 41 -3 3 -27 21 -55 39 -46 31 -103 77 -225 178 -25 21 -67
53 -93 72 -26 19 -96 73 -154 120 -116 93 -128 103 -348 273 -82 64 -184 145
-226 179 -181 149 -380 307 -449 358 -233 169 -470 384 -470 426 0 14 19 0 68
-51 37 -38 102 -97 145 -130z m1241 115 c7 0 33 -17 57 -39 32 -28 65 -44 118
-59 87 -25 147 -74 157 -129 13 -67 -79 -153 -164 -153 -26 0 -93 42 -104 65
-9 20 -13 22 -29 12 -15 -9 -23 -9 -37 1 -9 6 -27 16 -39 22 -30 13 -32 60 -3
60 11 0 20 6 20 14 0 19 14 28 34 20 24 -9 19 -34 -6 -35 -22 0 -22 -1 -4 -12
10 -7 37 -29 60 -50 86 -80 141 -85 196 -19 42 51 40 91 -4 135 -57 58 -129
58 -182 0 l-24 -26 -24 22 c-20 19 -22 29 -18 72 5 52 -14 89 -45 89 -8 0 -11
5 -8 11 4 6 14 8 22 5 8 -3 20 -6 27 -6z m1713 -46 c42 -17 116 -91 145 -146
20 -38 23 -56 22 -158 -1 -118 -19 -210 -49 -256 -18 -29 -36 -23 -81 27 -16
17 -43 37 -61 45 -38 16 -205 18 -328 3 -176 -21 -245 -23 -245 -7 0 7 31 59
69 113 38 55 94 136 123 180 58 85 127 145 210 183 26 12 58 22 70 22 13 0 30
5 38 10 16 10 32 7 87 -16z m-1053 10 c24 -9 19 -48 -9 -74 -20 -18 -28 -21
-37 -12 -10 10 -7 16 10 28 30 21 28 34 -8 34 -16 0 -30 4 -30 9 0 17 45 26
74 15z m-686 -38 c5 -44 -6 -74 -33 -92 -23 -15 -27 -15 -50 0 -53 35 -15 130
50 124 25 -2 31 -8 33 -32z m243 -99 c19 -15 39 -50 39 -71 0 -24 -42 -63 -76
-70 -25 -6 -37 -2 -63 19 -19 17 -31 36 -31 52 0 27 17 64 34 75 17 12 79 9
97 -5z m825 -15 c5 -5 25 -15 44 -23 55 -21 130 -71 130 -86 0 -19 -91 -153
-104 -153 -7 0 -43 29 -81 64 -68 62 -69 64 -52 83 21 24 22 57 1 77 -18 18
-33 20 -68 6 -29 -10 -36 6 -14 28 14 14 129 17 144 4z m-2246 -56 c24 -51 27
-85 6 -67 -19 16 -67 107 -60 114 13 12 34 -7 54 -47z m1838 12 c-2 -7 -26
-28 -52 -45 -44 -30 -55 -33 -125 -33 -87 0 -125 16 -102 43 9 12 19 14 37 6
43 -16 116 -9 174 16 65 28 73 29 68 13z m327 -28 c0 -8 -8 -16 -17 -18 -13
-2 -18 3 -18 18 0 15 5 20 18 18 9 -2 17 -10 17 -18z m-68 -7 c3 -7 -13 -21
-35 -32 -38 -20 -101 -81 -121 -120 -6 -11 -33 -33 -59 -48 -55 -33 -142 -38
-183 -12 -24 16 -64 113 -53 131 3 4 29 8 57 8 30 0 60 7 71 15 32 24 36 18
30 -44 -7 -66 0 -76 49 -65 22 4 58 34 119 96 83 86 114 104 125 71z m-1994
-46 c29 -24 68 -54 87 -67 48 -33 238 -184 275 -219 17 -15 38 -31 48 -34 29
-11 19 -21 -51 -51 -37 -17 -80 -39 -95 -49 -25 -17 -32 -18 -53 -7 -13 8 -24
17 -24 21 0 3 -27 26 -60 50 -33 24 -60 47 -60 52 0 4 -5 7 -11 7 -6 0 -34 19
-63 43 -29 23 -70 56 -92 72 -91 71 -174 147 -174 160 0 8 16 19 38 24 98 26
95 27 131 -31 25 -41 45 -48 60 -20 6 12 5 25 -5 42 -14 26 -18 50 -8 50 3 0
29 -19 57 -43z m1037 7 c0 -11 6 -15 20 -11 26 7 38 -13 17 -28 -18 -13 -23
-35 -9 -35 5 0 17 9 27 20 24 26 32 25 84 -10 69 -47 111 -55 164 -30 25 12
55 32 67 46 13 13 31 24 40 24 28 0 70 -39 70 -65 0 -31 24 -87 47 -107 10 -9
39 -19 66 -23 26 -4 50 -11 53 -16 5 -9 -11 -76 -25 -97 -7 -11 -16 -10 -50 8
-35 18 -58 21 -132 19 -51 -1 -94 3 -101 9 -10 8 -20 5 -38 -8 -39 -31 -72
-21 -35 10 25 21 18 42 -12 38 -20 -2 -29 -9 -31 -25 -3 -18 -10 -23 -32 -23
-28 0 -44 5 -115 36 -16 7 -48 31 -70 54 -39 40 -40 43 -44 120 -1 44 -1 87 3
95 7 20 36 19 36 -1z m1014 -57 c28 -29 66 -64 84 -79 18 -16 30 -32 27 -38
-3 -5 -32 -10 -62 -10 -31 0 -84 -5 -117 -10 -100 -18 -209 -39 -233 -46 -46
-13 -23 22 31 48 38 19 68 44 101 87 39 50 96 100 114 101 2 0 27 -24 55 -53z
m-2328 -21 c6 -15 124 -112 239 -197 33 -24 87 -66 121 -94 33 -27 74 -60 90
-71 16 -12 26 -25 21 -30 -12 -12 -66 20 -134 78 -33 29 -107 87 -163 128
-125 91 -200 160 -200 183 0 21 19 23 26 3z m2458 -131 c3 -8 3 -22 0 -30 -10
-26 16 -45 60 -45 24 0 92 7 152 16 123 18 346 20 388 5 58 -23 14 -32 -145
-30 -87 1 -162 -1 -165 -4 -4 -4 6 -11 22 -18 20 -7 80 -9 184 -4 180 7 178 7
292 -100 129 -122 205 -227 193 -265 -6 -18 -58 -40 -95 -40 -40 0 -133 42
-220 99 -31 20 -63 41 -72 46 -68 43 -171 114 -208 145 -25 20 -64 50 -87 65
-25 16 -43 35 -43 46 0 13 -7 19 -22 19 -23 0 -58 -26 -58 -44 0 -6 32 -36 71
-66 39 -30 76 -60 83 -65 21 -21 105 -75 114 -75 4 0 19 -11 31 -24 l22 -24
-43 -34 c-40 -32 -85 -62 -271 -177 -38 -24 -73 -39 -80 -35 -39 24 -147 108
-312 244 -33 28 -89 71 -125 97 -36 26 -67 50 -70 53 -3 3 -27 21 -53 40 -33
23 -46 39 -42 49 4 9 12 33 18 54 7 21 18 37 27 37 30 -1 356 53 395 65 54 17
52 17 59 0z m267 -163 c36 -24 86 -72 75 -72 -9 0 -116 79 -116 86 0 9 16 3
41 -14z m-1916 -55 c32 -23 74 -56 92 -73 18 -18 86 -72 150 -121 215 -163
238 -181 258 -203 11 -12 53 -47 93 -77 39 -30 72 -61 72 -68 0 -7 -13 -18
-29 -25 -16 -6 -39 -23 -52 -36 -28 -30 -17 -57 26 -62 27 -3 46 3 107 34 50
26 59 23 193 -80 47 -36 73 -62 67 -68 -14 -14 -165 -66 -272 -94 -52 -14
-117 -32 -144 -40 -50 -14 -66 -12 -66 10 0 30 -26 38 -82 26 -29 -7 -109 -17
-178 -23 -117 -11 -125 -14 -137 -37 -11 -23 -15 -24 -105 -21 -108 3 -124 11
-107 59 12 35 9 66 -6 64 -5 -1 -12 -23 -15 -49 -4 -40 -9 -49 -27 -51 -13 -2
-23 1 -23 7 0 6 -10 10 -23 9 -22 -2 -87 20 -87 29 0 2 10 19 23 36 28 39 54
121 63 203 11 107 -42 260 -114 326 -46 42 -118 88 -137 88 -27 0 -16 21 46
85 59 62 126 104 264 167 33 15 67 28 75 28 8 0 42 -19 75 -43z m-890 -139
c20 -24 54 -79 75 -123 45 -95 103 -259 98 -280 -2 -8 -34 30 -73 86 -38 55
-76 106 -82 114 -7 7 -13 16 -13 20 0 4 -14 26 -31 51 -60 87 -87 176 -56 187
19 7 42 -9 82 -55z m3038 20 c41 -21 110 -78 95 -78 -8 0 -24 9 -36 20 -12 11
-25 20 -29 20 -11 0 -70 49 -60 50 5 0 18 -5 30 -12z m-2648 -389 c54 -25 67
-46 68 -105 0 -49 -17 -75 -64 -94 -46 -19 -60 -8 -53 43 6 41 4 46 -30 79
-20 19 -36 40 -36 46 0 11 49 51 63 52 4 0 28 -10 52 -21z m1221 -63 c23 -18
13 -30 -36 -44 -19 -5 -43 -13 -52 -17 -34 -14 -19 24 19 50 44 29 43 29 69
11z m-1302 -58 c23 -33 21 -68 -4 -68 -39 0 -16 -55 77 -181 122 -166 189
-302 166 -337 -26 -43 -82 -13 -141 76 -45 67 -51 82 -92 227 -17 61 -35 126
-41 145 -6 19 -9 51 -7 70 3 29 0 35 -17 35 -14 0 -21 -8 -23 -27 -2 -16 -8
-28 -13 -28 -16 0 -49 39 -49 59 0 50 114 72 144 29z m1627 -194 c8 -9 50 -44
94 -78 44 -33 103 -81 131 -107 95 -86 255 -179 309 -179 25 0 33 -8 64 -62
12 -21 30 -55 42 -75 36 -64 92 -133 109 -133 21 0 40 20 40 40 0 9 -22 67
-50 128 -27 61 -50 114 -50 116 0 3 26 14 57 26 63 23 93 18 132 -24 18 -19
19 -27 11 -56 -16 -56 -13 -145 6 -161 14 -11 19 -10 35 10 11 13 22 35 25 50
9 43 26 81 35 81 16 0 107 -74 120 -98 27 -47 -22 -78 -228 -144 -151 -49
-268 -66 -330 -49 -41 11 -187 114 -323 227 -26 23 -136 113 -310 256 -58 48
-125 105 -150 127 -40 35 -42 40 -22 41 23 0 169 57 187 72 15 13 52 9 66 -8z
m-581 -91 c0 -5 -8 -22 -18 -38 -11 -17 -22 -47 -26 -68 -7 -36 -27 -49 -41
-27 -10 16 -50 12 -107 -10 -29 -11 -55 -16 -58 -12 -102 128 -102 127 -30
128 84 2 213 16 230 25 19 11 50 11 50 2z m343 -53 c40 -33 104 -87 142 -120
170 -146 424 -347 554 -437 101 -71 216 -68 451 11 86 29 166 58 177 65 28 14
33 14 33 -3 0 -8 -21 -22 -47 -31 -27 -9 -64 -25 -83 -35 -119 -62 -351 -111
-427 -91 -80 22 -532 350 -712 517 -36 34 -92 83 -123 108 -53 43 -74 76 -47
76 6 0 43 -27 82 -60z m-985 -27 c12 -24 4 -43 -18 -43 -20 0 -36 33 -25 50
10 16 33 12 43 -7z m132 -8 c0 -15 -68 -55 -95 -55 -23 0 -18 37 7 54 29 21
88 21 88 1z m2082 -61 c3 -3 -1 -26 -9 -52 -8 -26 -20 -80 -27 -121 -7 -43
-17 -76 -25 -79 -10 -3 -11 16 -5 99 6 97 6 103 -10 90 -23 -19 -72 4 -55 26
14 16 51 17 67 1 9 -9 12 -9 12 3 0 27 36 50 52 33z m-1615 -49 c47 -28 85
-90 87 -143 4 -140 -99 -220 -237 -181 -89 24 -138 133 -104 229 24 68 56 98
124 115 51 13 83 8 130 -20z m1283 -87 c11 -12 20 -26 20 -30 0 -5 16 -41 35
-81 19 -39 35 -81 35 -92 0 -19 0 -19 -19 0 -26 26 -121 193 -121 211 0 21 26
17 50 -8z"/>
<path d="M2592 2943 c4 -22 43 -25 43 -3 0 8 -11 16 -23 18 -19 3 -23 0 -20
-15z"/>
<path d="M2833 2824 c-7 -20 11 -38 32 -30 13 4 14 10 5 26 -13 24 -28 26 -37
4z"/>
<path d="M1956 1554 c-10 -25 -7 -124 4 -124 5 0 12 17 15 38 3 20 8 45 10 55
8 38 -17 64 -29 31z"/>
<path d="M2450 1138 c-46 -31 -58 -77 -32 -126 17 -34 23 -37 69 -40 45 -3 53
0 72 24 35 44 25 108 -23 146 -28 23 -47 22 -86 -4z m84 -44 c15 -22 15 -29 4
-55 -16 -37 -42 -45 -73 -25 -33 21 -34 69 -3 90 32 23 53 20 72 -10z"/>
<path d="M1083 2088 c-14 -17 -48 -94 -63 -142 -12 -39 -9 -152 5 -188 16 -40
23 -13 23 82 0 93 3 106 33 168 18 37 33 71 33 76 1 15 -20 18 -31 4z"/>
<path d="M1110 1993 c-25 -55 -30 -90 -31 -203 0 -124 10 -194 38 -259 17 -39
38 -58 47 -43 2 4 -5 34 -15 66 -38 118 -51 286 -28 371 18 69 22 95 12 95 -6
0 -16 -12 -23 -27z"/>
</g>
</svg>
