<?xml version="1.0" standalone="no"?>
<!DOCTYPE svg PUBLIC "-//W3C//DTD SVG 20010904//EN"
 "http://www.w3.org/TR/2001/REC-SVG-20010904/DTD/svg10.dtd">
<svg version="1.0" xmlns="http://www.w3.org/2000/svg"
 width="468pt" height="646pt" viewBox="0 0 468 646"
 preserveAspectRatio="xMidYMid meet">
<metadata>
Created by potrace 1.8, written by Peter Selinger 2001-2007
</metadata>
<g transform="translate(0,646) scale(0.091406,-0.091406)"
fill="#f2f6f9" stroke="none">
<path d="M1180 6625 c-15 -18 -6 -45 14 -45 8 0 18 -9 21 -20 3 -11 10 -20 14
-20 5 0 22 -13 39 -30 18 -16 37 -30 42 -30 6 0 9 -4 6 -9 -4 -5 10 -24 30
-43 42 -38 38 -34 106 -115 28 -35 54 -63 59 -63 4 0 22 -24 40 -52 34 -53 79
-108 133 -159 18 -17 26 -33 23 -43 -4 -10 -1 -16 8 -16 8 0 15 -4 15 -9 0 -4
19 -21 42 -36 37 -24 40 -29 25 -40 -15 -10 -12 -13 21 -23 52 -16 57 -15 60
4 3 10 -16 35 -45 63 -27 25 -64 66 -83 91 -19 25 -40 50 -47 55 -6 6 -42 51
-79 100 -37 50 -70 92 -73 95 -4 3 -17 20 -30 38 -12 17 -29 32 -37 32 -8 0
-14 7 -14 16 0 18 -25 47 -155 175 -54 55 -104 99 -111 99 -6 0 -17 -7 -24
-15z"/>
<path d="M1054 6135 c-4 -8 -12 -15 -20 -15 -8 0 -14 -7 -14 -15 0 -9 9 -15
25 -15 14 0 25 -4 25 -10 0 -5 11 -10 24 -10 13 0 26 -3 28 -7 4 -10 53 -39
104 -63 23 -10 45 -23 49 -29 3 -6 11 -9 16 -5 6 3 17 -3 25 -15 8 -12 21 -21
28 -21 26 0 116 -58 116 -75 0 -11 44 -44 59 -45 8 0 19 -7 26 -16 12 -18 81
-45 90 -36 15 16 0 40 -38 60 -23 12 -62 41 -87 63 -24 22 -65 53 -90 67 -25
14 -59 36 -76 49 -17 13 -38 23 -47 23 -9 0 -19 4 -22 10 -3 5 -38 30 -77 56
-52 33 -77 44 -94 40 -17 -5 -24 -2 -24 9 0 19 -19 20 -26 0z"/>
<path d="M788 5808 c7 -28 55 -55 111 -62 78 -11 151 -29 151 -37 0 -4 40 -22
90 -39 49 -18 95 -39 101 -46 15 -18 25 -18 49 3 20 17 19 18 -17 35 -20 10
-42 18 -48 18 -6 0 -38 14 -71 31 -94 49 -159 71 -259 88 -27 5 -64 13 -81 19
-29 9 -31 8 -26 -10z"/>
<path d="M2095 5730 c-3 -5 -27 -10 -53 -10 -56 0 -183 -39 -253 -77 -42 -22
-97 -74 -145 -135 -19 -25 -71 -133 -90 -188 -22 -66 -25 -214 -5 -275 7 -22
15 -51 19 -65 9 -34 35 -68 110 -148 34 -36 62 -69 62 -72 0 -3 20 -19 45 -35
50 -31 49 -42 -5 -48 -19 -2 -51 -13 -70 -25 -19 -12 -40 -22 -47 -22 -24 0
-89 -40 -123 -75 -19 -19 -39 -35 -44 -35 -15 -1 -56 -36 -56 -49 0 -6 8 -7
18 -4 15 6 15 5 3 -11 -11 -13 -16 -14 -22 -4 -6 10 -11 10 -20 1 -9 -9 -8
-20 4 -46 13 -27 27 -37 72 -52 31 -11 73 -35 93 -53 41 -38 137 -105 165
-115 26 -10 22 -19 -36 -80 -53 -55 -54 -55 -78 -39 -15 10 -23 24 -21 35 4
19 -24 24 -30 5 -3 -8 -13 -6 -34 9 -62 44 -116 65 -153 60 -69 -9 -171 -45
-198 -69 -10 -9 -28 -19 -40 -22 -12 -4 -37 -26 -56 -49 -19 -23 -47 -56 -63
-73 -34 -36 -44 -56 -74 -149 -37 -113 -40 -134 -23 -144 11 -6 12 -10 4 -15
-17 -11 -13 -58 9 -104 11 -22 20 -50 20 -61 0 -11 5 -23 10 -26 6 -3 10 -13
10 -22 0 -16 65 -94 84 -102 6 -2 15 -8 21 -13 5 -4 21 -17 34 -28 13 -11 28
-17 33 -14 10 6 50 -10 78 -32 15 -11 60 -23 110 -27 21 -2 25 -7 23 -32 -4
-42 -3 -240 1 -298 2 -40 0 -47 -13 -41 -9 4 -56 21 -104 37 -82 27 -92 29
-130 17 -58 -19 -77 -37 -76 -74 2 -47 14 -81 29 -78 7 2 16 -1 19 -6 8 -13
118 -72 134 -72 6 0 35 -12 62 -25 28 -14 57 -25 66 -25 24 0 45 -113 30 -165
-6 -21 -8 -42 -4 -48 3 -5 8 -53 10 -106 2 -53 10 -134 18 -181 7 -47 16 -110
20 -140 17 -145 59 -347 82 -390 7 -14 13 -32 13 -41 0 -9 11 -37 25 -63 14
-26 25 -57 25 -68 0 -12 6 -29 13 -37 7 -9 24 -41 37 -71 35 -81 108 -198 158
-255 78 -89 156 -166 185 -181 34 -18 34 -29 -2 -50 -45 -27 -101 -129 -101
-184 0 -59 14 -76 71 -91 44 -12 50 -11 102 15 35 18 68 46 93 78 22 27 44 56
50 64 10 13 17 12 48 -2 20 -10 36 -21 36 -25 0 -5 26 -15 58 -25 31 -9 65
-20 74 -25 10 -5 22 -9 28 -9 5 0 35 -12 67 -26 142 -65 323 -97 378 -67 14 8
36 8 69 2 49 -9 103 -7 162 6 28 6 32 4 45 -27 8 -18 12 -56 10 -85 -3 -49 -1
-52 28 -67 17 -9 35 -25 41 -36 11 -21 49 -26 109 -14 39 8 123 89 119 114 -2
9 3 24 9 32 17 20 19 103 3 123 -10 12 -10 19 -1 28 9 9 14 9 20 -1 5 -9 22
-1 61 28 30 22 56 44 59 48 4 4 18 13 34 19 15 7 27 17 27 22 0 5 20 21 44 35
24 14 54 42 66 61 12 19 28 35 36 35 7 0 20 13 29 29 8 17 23 36 32 43 10 7
23 22 29 33 17 31 59 42 82 22 10 -9 32 -17 48 -17 16 0 38 -7 48 -15 25 -19
83 -19 120 0 15 8 39 15 52 15 32 0 61 64 42 89 -30 37 -74 69 -153 109 -63
32 -83 47 -80 60 5 18 10 37 50 177 42 150 44 262 5 350 -17 39 -40 116 -40
135 0 11 -8 28 -18 38 -10 10 -19 27 -20 37 0 11 -6 45 -12 75 -6 30 -13 82
-15 115 -3 33 -10 76 -16 95 -21 70 10 319 46 360 28 33 47 83 41 111 -3 16
-1 29 3 29 17 0 54 70 43 83 -12 16 4 76 23 83 8 3 29 -5 47 -18 56 -41 108
-53 163 -37 54 16 65 34 65 110 0 49 -10 76 -42 114 -22 26 -33 71 -19 79 6 4
11 16 11 27 0 17 -3 18 -21 8 -22 -11 -38 0 -39 28 0 6 -8 25 -17 42 -21 37
-14 54 40 91 43 29 72 78 91 155 8 29 21 64 29 77 19 29 41 124 34 142 -5 13
6 60 23 96 20 43 7 397 -17 460 -3 8 -7 37 -10 65 -2 27 -8 54 -13 60 -5 6
-12 29 -16 51 -4 26 -15 47 -30 59 -13 10 -24 24 -24 31 0 7 -9 19 -20 27 -11
7 -21 25 -22 38 -2 13 -11 30 -21 37 -13 10 -16 22 -12 41 4 20 0 32 -15 46
-11 10 -20 24 -20 32 0 7 -6 13 -12 13 -7 0 -27 20 -45 43 -52 69 -256 274
-280 281 -13 4 -23 14 -23 22 0 8 -8 18 -17 21 -10 4 -36 19 -57 35 -21 15
-45 28 -52 28 -7 0 -29 9 -49 20 -20 11 -42 20 -49 20 -7 0 -44 15 -82 34 -83
41 -177 77 -221 83 -18 3 -33 11 -33 19 0 21 -20 27 -46 13 -19 -10 -29 -10
-46 -1 -13 7 -48 14 -78 17 -30 3 -66 7 -80 8 -14 1 -29 5 -35 8 -5 3 -62 5
-126 4 -100 -1 -120 -4 -151 -23 -19 -12 -46 -22 -59 -22 -34 0 -51 -14 -43
-34 5 -13 13 -16 28 -10 24 8 140 14 311 17 119 1 152 -4 300 -45 39 -11 96
-26 127 -33 32 -7 103 -36 159 -64 56 -28 106 -51 113 -51 19 0 165 -99 175
-119 6 -10 43 -47 83 -81 40 -35 80 -73 88 -86 8 -13 20 -24 26 -24 6 0 17
-11 24 -25 7 -14 24 -32 36 -40 13 -8 35 -36 50 -62 15 -27 44 -73 64 -103 42
-63 71 -124 94 -194 9 -27 23 -58 31 -69 8 -11 12 -31 9 -43 -3 -12 1 -33 11
-47 11 -17 13 -27 6 -32 -8 -4 -8 -12 -1 -26 9 -16 21 -230 20 -344 0 -46 -24
-130 -35 -128 -5 2 -13 16 -18 33 -4 16 -15 35 -25 42 -10 7 -29 31 -41 53
-25 41 -129 155 -143 155 -5 0 -63 55 -131 123 -67 67 -139 133 -160 146 -22
13 -51 35 -65 48 -50 44 -62 53 -72 53 -5 0 -16 10 -25 23 -8 13 -42 43 -75
67 -33 24 -60 46 -60 50 0 3 -16 13 -36 20 -20 8 -40 22 -45 31 -5 10 -22 20
-38 24 -16 3 -35 12 -41 20 -11 13 -100 59 -195 100 -22 10 -58 26 -81 36 -22
11 -52 19 -66 19 -14 0 -31 7 -38 15 -7 9 -18 14 -24 12 -6 -2 -29 5 -51 16
-62 31 -65 35 -53 62 15 33 3 69 -36 107 -18 18 -53 71 -77 117 -79 151 -97
184 -106 190 -17 13 -91 107 -106 137 -17 33 -56 64 -82 64 -8 0 -15 7 -15 15
0 8 -9 24 -20 35 -11 11 -20 23 -20 28 -2 22 -139 104 -221 130 -44 15 -176
16 -184 2z m252 -66 c141 -65 235 -236 213 -389 -11 -77 -27 -142 -45 -182 -8
-17 -15 -34 -15 -38 0 -4 -15 -28 -34 -54 -19 -25 -35 -54 -37 -65 -2 -10 -14
-25 -26 -34 -21 -13 -23 -13 -23 4 0 11 9 33 20 49 33 50 37 58 53 100 41 109
59 186 46 201 -9 11 -8 18 5 32 22 25 20 64 -4 95 -11 14 -20 34 -20 44 0 10
-14 47 -31 83 -40 82 -104 142 -170 160 -27 8 -49 18 -49 23 0 12 56 -2 117
-29z m-112 -17 c45 -14 81 -33 102 -54 40 -39 73 -92 73 -116 0 -9 4 -25 9
-35 19 -38 30 -90 31 -152 3 -122 1 -132 -19 -137 -16 -4 -18 -9 -10 -27 8
-17 5 -34 -14 -77 -34 -74 -129 -190 -176 -214 -22 -11 -48 -27 -58 -36 -38
-32 -88 -45 -162 -43 -79 2 -191 23 -191 36 0 4 -9 8 -19 8 -11 0 -30 14 -43
30 -13 17 -44 56 -70 88 -69 83 -108 169 -108 235 0 59 24 175 46 222 19 43
69 109 131 176 25 27 104 73 188 110 57 24 190 18 290 -14z m379 -236 c14 -27
31 -51 39 -54 7 -3 28 -34 46 -69 37 -73 70 -129 92 -155 26 -30 24 -112 -6
-195 -14 -40 -34 -82 -44 -93 -10 -11 -21 -33 -25 -49 -7 -29 -101 -136 -119
-136 -5 0 -15 7 -21 16 -10 14 -14 13 -37 -4 -41 -33 -90 -47 -159 -46 -156 1
-268 32 -253 70 8 20 34 17 31 -3 -5 -31 59 -18 106 21 46 38 83 73 107 102 9
10 25 26 35 35 23 19 113 142 135 184 9 16 19 44 23 60 4 17 14 37 21 45 7 8
13 33 13 55 1 22 1 73 2 113 1 48 -4 79 -13 93 -13 17 -13 59 -1 59 2 0 15
-22 28 -49z m302 -436 c23 -24 24 -27 10 -53 -8 -15 -33 -66 -55 -114 -23 -48
-54 -107 -70 -130 -15 -24 -31 -55 -35 -69 -4 -21 -14 -28 -41 -33 -30 -6 -43
-2 -75 22 -38 28 -42 42 -12 42 17 0 102 88 102 105 0 7 14 31 30 53 17 23 30
47 30 53 0 29 35 116 54 131 28 23 32 22 62 -7z m39 -149 c19 -14 19 -15 -9
-67 -90 -168 -146 -236 -146 -175 0 24 46 116 58 116 7 0 29 47 52 108 14 36
18 38 45 18z m-679 -42 c-9 -9 -20 -14 -23 -10 -4 3 2 13 13 20 25 18 31 12
10 -10z m849 -34 c39 -12 89 -31 112 -41 24 -10 50 -19 58 -19 8 0 15 -4 15
-10 0 -5 8 -10 19 -10 10 0 46 -18 79 -40 33 -22 62 -40 65 -40 2 0 22 -16 43
-35 21 -19 44 -35 51 -35 7 0 20 -8 30 -19 10 -10 30 -21 46 -25 15 -3 27 -11
27 -17 0 -12 58 -69 69 -69 4 0 14 -11 21 -25 7 -14 18 -25 23 -25 5 0 25 -13
44 -30 18 -16 40 -30 48 -30 8 0 15 -6 15 -13 0 -15 54 -67 69 -67 14 0 101
-84 101 -97 0 -6 14 -17 30 -25 17 -7 30 -18 30 -25 0 -7 6 -10 14 -7 7 3 16
-1 19 -10 3 -8 -1 -17 -9 -20 -9 -3 -13 -10 -9 -15 3 -6 12 -8 19 -5 8 3 17 1
21 -5 3 -6 17 -11 31 -11 15 0 24 -6 24 -16 0 -10 -6 -14 -15 -10 -9 3 -15 0
-15 -9 0 -10 10 -15 30 -15 18 0 33 -6 36 -15 4 -8 15 -15 25 -15 13 0 19 -7
19 -22 0 -17 -3 -19 -12 -10 -16 16 -28 15 -28 -3 0 -20 34 -37 47 -24 7 7 12
5 16 -5 4 -9 2 -16 -3 -16 -6 0 -10 -4 -10 -9 0 -10 38 -24 58 -22 17 2 15 -7
-4 -27 -14 -13 -14 -17 -3 -20 26 -8 59 -45 59 -67 0 -12 -7 -36 -15 -52 -11
-23 -13 -38 -6 -56 8 -21 5 -32 -13 -60 -13 -19 -27 -44 -31 -56 -10 -31 -41
-26 -64 12 -11 17 -34 43 -51 57 -40 33 -66 58 -115 110 -22 23 -56 54 -75 69
-19 14 -44 37 -55 51 -38 48 -150 150 -165 150 -4 0 -13 13 -20 29 -6 16 -24
34 -38 40 -40 16 -84 44 -121 79 -60 55 -71 62 -90 62 -11 0 -22 8 -25 18 -6
17 -49 42 -73 42 -7 0 -17 9 -23 20 -6 11 -20 20 -30 20 -11 0 -20 6 -20 14 0
7 -14 16 -30 20 -17 3 -46 20 -65 38 -64 61 -88 78 -108 78 -11 0 -35 14 -54
30 -18 17 -40 30 -48 30 -8 0 -18 6 -22 13 -12 20 -78 57 -100 57 -12 0 -26 7
-33 15 -7 8 -16 12 -21 9 -13 -8 -49 15 -49 31 0 8 9 24 19 34 19 19 71 115
71 131 0 5 9 24 20 43 18 31 24 34 48 27 15 -5 59 -18 97 -30z m-891 -14 c-7
-17 -44 -28 -44 -14 0 13 32 38 42 32 4 -3 5 -11 2 -18z m-161 -37 c-8 -8 -19
-8 -40 -1 -28 10 -28 10 12 11 28 1 36 -2 28 -10z m-18 -66 c44 -8 101 -18
127 -23 26 -5 56 -13 67 -19 11 -6 37 -11 58 -11 21 0 54 -8 73 -19 41 -21 90
-25 90 -6 0 8 13 16 29 20 21 4 38 0 66 -19 21 -15 47 -26 58 -26 11 0 35 -5
53 -12 28 -10 36 -9 52 6 14 12 28 15 48 10 16 -4 31 -10 34 -13 8 -10 43 -30
70 -41 14 -6 32 -15 40 -20 8 -6 26 -15 40 -21 14 -6 36 -17 50 -23 14 -6 50
-27 80 -46 30 -20 72 -44 92 -55 21 -10 53 -34 73 -52 20 -18 41 -33 46 -33
14 0 31 -18 55 -58 28 -48 106 -82 116 -50 2 6 10 8 16 4 7 -4 10 -16 7 -25
-5 -18 29 -41 60 -41 8 0 15 -9 15 -20 0 -11 4 -20 8 -20 12 0 139 -98 197
-152 28 -26 86 -81 130 -122 44 -42 87 -76 95 -76 21 0 102 -66 118 -96 7 -13
17 -24 22 -24 5 0 12 -9 15 -20 3 -11 13 -20 21 -20 8 0 13 -4 9 -10 -8 -13
17 -50 33 -50 7 0 26 -7 42 -15 25 -13 30 -22 30 -50 0 -45 -35 -66 -74 -45
-13 7 -30 9 -36 5 -7 -4 -15 -4 -19 1 -3 5 -33 29 -65 54 -33 25 -81 65 -107
90 -110 105 -135 124 -184 149 -28 14 -57 42 -77 72 -9 15 -29 29 -45 33 -52
12 -103 41 -103 58 0 11 -17 25 -42 37 -24 11 -65 39 -93 64 -27 25 -73 58
-103 73 -30 16 -59 35 -66 44 -12 16 -22 23 -112 75 -33 19 -67 35 -75 35 -8
0 -25 6 -39 13 -14 8 -41 17 -60 21 -19 3 -57 15 -85 25 -71 27 -116 42 -150
51 -214 58 -281 72 -355 75 -47 3 -96 9 -110 14 -14 6 -81 12 -150 16 -127 5
-347 19 -500 30 -85 6 -150 28 -150 50 0 19 53 82 80 97 14 7 33 20 43 29 10
9 39 22 65 29 26 7 56 20 67 29 63 52 127 57 310 24z m575 -54 c0 -5 -7 -9
-15 -9 -8 0 -15 7 -15 15 0 9 6 12 15 9 8 -4 15 -10 15 -15z m-778 -263 c87
-1 131 -5 139 -13 11 -11 7 -13 -18 -13 -18 0 -33 -6 -37 -15 -3 -8 -14 -15
-24 -15 -11 0 -33 -13 -49 -30 -26 -26 -33 -29 -61 -20 -18 5 -46 20 -63 34
-17 14 -34 26 -38 26 -12 0 -51 40 -51 52 0 7 12 8 38 3 20 -5 94 -9 164 -9z
m458 -46 c41 -6 109 -14 150 -19 41 -5 88 -14 103 -20 16 -6 39 -11 52 -11 31
0 304 -90 380 -125 32 -14 72 -37 89 -50 17 -13 51 -31 76 -41 25 -9 62 -30
82 -45 20 -16 42 -29 48 -29 7 0 24 -12 39 -27 54 -56 116 -110 134 -116 9 -3
17 -11 17 -18 0 -6 7 -9 14 -6 11 4 13 1 9 -10 -5 -12 -2 -15 10 -10 9 3 19 2
22 -3 4 -6 15 -10 27 -10 16 0 18 -3 9 -14 -9 -11 -5 -18 24 -36 19 -12 35
-25 35 -29 0 -4 11 -13 25 -19 14 -7 28 -19 31 -27 15 -37 159 -165 187 -165
8 0 26 -19 40 -42 14 -24 51 -68 81 -98 31 -30 56 -58 56 -61 0 -11 78 -127
90 -134 19 -12 31 -54 20 -73 -28 -52 -70 -152 -70 -169 0 -10 -8 -34 -18 -53
-10 -19 -24 -55 -32 -80 -7 -25 -17 -49 -21 -55 -3 -5 -12 -35 -18 -65 -7 -30
-17 -68 -23 -85 -18 -54 -21 -79 -21 -155 1 -110 22 -319 34 -341 5 -11 7 -24
3 -30 -3 -6 -2 -21 4 -32 6 -12 18 -41 28 -64 10 -24 21 -43 26 -43 4 0 8 -12
8 -26 0 -14 6 -40 14 -57 17 -39 28 -97 28 -157 1 -64 -22 -210 -37 -242 -7
-15 -19 -51 -26 -80 -7 -29 -21 -64 -31 -77 -10 -13 -18 -30 -18 -38 0 -31
-74 -118 -92 -107 -12 8 -61 -45 -55 -60 4 -9 2 -18 -4 -22 -6 -4 -5 -11 3
-22 11 -13 10 -14 -16 -8 -24 6 -28 4 -22 -10 4 -11 2 -15 -8 -11 -9 4 -25
-13 -46 -45 -38 -58 -61 -83 -114 -123 -83 -61 -139 -95 -157 -95 -22 0 -69
-21 -69 -31 0 -4 -17 -9 -37 -12 -21 -3 -68 -12 -104 -20 -44 -9 -72 -11 -84
-5 -11 7 -31 4 -66 -11 -50 -22 -94 -27 -139 -17 -81 19 -145 25 -223 22 -70
-3 -90 -1 -94 10 -3 9 -13 12 -25 8 -11 -3 -30 -2 -42 4 -11 5 -41 15 -66 21
-107 29 -128 36 -177 58 -28 13 -55 28 -58 33 -3 6 -14 10 -23 10 -9 0 -28 12
-41 25 -13 14 -32 25 -42 25 -11 0 -38 18 -61 40 -23 22 -49 42 -58 45 -8 3
-42 30 -74 60 -33 30 -65 55 -73 55 -7 0 -19 12 -27 28 -8 15 -34 48 -58 74
-73 81 -88 99 -88 108 0 5 -11 25 -25 45 -21 32 -61 144 -81 228 -3 15 -10 30
-15 33 -5 3 -9 14 -9 25 0 10 -5 29 -12 42 -24 47 -28 57 -28 72 0 9 -8 30
-17 48 -9 18 -22 75 -30 127 -7 52 -17 115 -22 140 -5 25 -14 73 -21 108 -7
34 -16 62 -21 62 -4 0 -8 12 -8 28 0 15 -2 62 -5 104 -3 64 -1 80 12 87 13 7
14 15 4 52 -38 149 -52 382 -39 634 l7 129 42 -3 c54 -4 68 -15 68 -57 0 -63
29 -147 62 -181 23 -23 35 -30 44 -22 6 5 16 9 20 7 15 -4 84 34 84 46 0 7 -5
17 -11 23 -16 16 -3 43 20 43 14 0 32 18 56 55 19 30 39 55 45 55 6 0 33 16
61 35 28 19 56 35 63 35 18 -1 51 -32 84 -80 59 -86 104 -125 197 -170 50 -23
117 -48 150 -56 33 -7 72 -16 88 -20 17 -4 27 -2 27 5 0 7 15 9 44 5 49 -7
118 12 206 58 30 15 60 28 67 28 7 0 13 4 13 9 0 5 10 11 23 15 25 6 130 108
152 147 28 51 54 105 65 134 49 129 13 379 -72 507 -10 14 -18 35 -18 46 0 95
-406 292 -499 242 -11 -5 -46 -14 -78 -20 -108 -18 -124 -22 -133 -40 -5 -9
-32 -28 -59 -41 -28 -13 -51 -27 -51 -31 0 -4 -22 -32 -49 -63 -27 -31 -57
-73 -66 -93 -10 -20 -23 -44 -30 -52 -7 -8 -19 -46 -26 -85 -7 -38 -21 -75
-30 -83 -13 -12 -15 -22 -7 -54 11 -51 5 -57 -25 -28 -13 13 -39 28 -58 34
-25 9 -33 16 -31 31 9 56 6 154 -6 176 -7 14 -34 38 -59 54 -63 39 -146 46
-220 16 -49 -19 -53 -19 -53 -3 0 9 9 23 20 30 11 7 20 17 20 22 0 6 7 18 15
28 9 9 41 50 72 90 31 39 59 72 64 72 4 0 25 16 46 36 21 20 58 53 83 72 25
20 54 46 65 58 22 23 105 50 129 41 8 -3 22 3 32 14 20 22 96 25 224 9z m-838
-160 c59 -20 128 -57 140 -74 4 -5 1 -15 -7 -20 -7 -6 -15 -23 -19 -37 -3 -14
-17 -42 -31 -63 -14 -20 -25 -46 -25 -56 0 -11 -4 -20 -10 -20 -18 0 -57 -111
-67 -195 -3 -22 -9 -44 -14 -49 -4 -5 -4 -17 2 -27 7 -14 0 -32 -36 -84 -25
-37 -45 -76 -45 -89 0 -12 -4 -26 -10 -32 -5 -5 -6 -24 -1 -45 12 -52 -1 -70
-31 -43 -13 12 -45 27 -72 35 -35 10 -65 29 -106 69 -88 86 -105 121 -116 245
-3 28 -9 59 -14 70 -16 39 -19 55 -10 55 6 0 10 10 10 23 0 12 11 40 25 62 13
22 25 50 25 62 0 12 9 28 21 36 11 8 45 38 75 66 30 28 58 51 62 51 4 0 14 6
20 13 17 16 131 64 157 66 12 1 46 -8 77 -19z m1195 -91 c15 -6 37 -15 48 -19
181 -69 276 -160 325 -315 7 -22 17 -45 22 -52 5 -6 8 -20 7 -30 -1 -10 1 -66
5 -125 10 -124 -2 -172 -67 -270 -40 -61 -182 -192 -238 -220 -63 -30 -140
-49 -173 -42 -17 4 -47 6 -65 6 -36 -2 -134 20 -186 41 -16 6 -66 32 -110 57
-75 43 -82 51 -117 116 -25 47 -37 82 -37 112 -1 24 -8 78 -17 120 -19 93 -14
169 17 220 12 20 28 58 35 83 13 42 82 157 121 201 20 22 113 75 167 95 78 29
217 40 263 22z m-938 -261 c20 -7 41 -16 46 -21 61 -46 59 -42 57 -103 -4 -93
-41 -118 -173 -118 -83 -1 -88 0 -113 27 -57 62 -55 89 13 160 65 69 99 80
170 55z m1948 -55 c24 -27 29 -43 15 -43 -11 0 -52 47 -52 60 0 17 13 11 37
-17z m158 -151 c0 -9 7 -17 15 -18 28 -1 55 -17 106 -63 93 -84 149 -128 192
-150 23 -12 50 -34 59 -49 10 -15 23 -31 30 -35 7 -4 13 -12 13 -17 0 -5 23
-48 50 -94 86 -145 109 -217 74 -230 -38 -15 -184 31 -184 58 1 45 28 71 71
67 9 -1 19 5 22 14 5 10 -4 19 -28 29 -20 9 -41 28 -51 47 -9 18 -27 41 -40
51 -23 19 -74 102 -74 122 0 17 -218 231 -235 231 -23 0 -49 31 -41 51 7 19
21 11 21 -14z m-2231 -83 c90 -11 128 -6 215 26 31 11 47 13 55 5 5 -5 19 -10
29 -10 18 0 57 -34 57 -50 0 -4 9 -17 20 -30 25 -29 27 -100 4 -140 -21 -35
-77 -64 -129 -67 -83 -5 -131 -3 -165 7 -19 5 -68 10 -108 10 -93 0 -127 17
-154 76 -17 39 -18 50 -7 82 6 20 22 51 35 69 13 17 24 42 24 55 l1 23 19 -23
c15 -18 35 -25 104 -33z m69 -319 c20 -16 27 -33 32 -75 5 -38 3 -60 -5 -70
-16 -19 -64 -19 -79 -1 -20 24 -31 78 -25 117 6 34 13 42 45 48 4 0 18 -8 32
-19z m-425 -291 c26 -6 66 -20 89 -31 l41 -19 4 -65 c3 -60 2 -64 -18 -64 -28
0 -193 84 -227 116 -26 24 -35 53 -20 67 10 11 79 8 131 -4z m2852 -1709 c14
-11 31 -20 37 -20 25 0 113 -62 113 -79 0 -22 -19 -41 -41 -41 -9 0 -19 -7
-23 -15 -7 -20 -33 -19 -53 1 -9 8 -25 13 -35 11 -10 -3 -31 1 -46 9 -15 8
-37 14 -50 14 -33 0 -38 27 -10 53 13 13 31 37 39 55 16 37 34 40 69 12z
m-214 -137 c-11 -11 -17 4 -9 23 7 18 8 18 11 1 2 -10 1 -21 -2 -24z m-1776
-224 l51 -40 -30 -37 c-70 -88 -132 -129 -173 -116 -17 5 -19 12 -15 47 12 98
17 109 59 148 24 21 46 39 50 39 3 0 29 -18 58 -41z m1316 -201 c11 -35 4
-125 -12 -158 -13 -25 -90 -90 -108 -90 -3 0 -6 7 -6 16 0 8 -20 24 -46 35
-39 18 -45 24 -40 42 3 12 6 39 6 60 0 56 22 71 120 80 14 1 33 10 43 20 23
23 34 22 43 -5z"/>
<path d="M2664 5016 c-6 -17 2 -36 17 -36 12 0 12 37 -1 45 -6 3 -13 -1 -16
-9z"/>
<path d="M2816 4808 c-9 -12 -16 -26 -16 -31 0 -13 29 12 41 35 14 26 -6 23
-25 -4z"/>
<path d="M2765 4450 c10 -11 22 -17 27 -14 12 8 -11 34 -30 34 -13 0 -12 -3 3
-20z"/>
<path d="M3087 4294 c-10 -11 3 -24 24 -24 23 0 25 15 3 24 -19 7 -19 7 -27 0z"/>
<path d="M1475 2330 c-4 -6 -3 -16 3 -22 6 -6 12 -6 17 2 4 6 3 16 -3 22 -6 6
-12 6 -17 -2z"/>
<path d="M2990 1803 c-6 -15 -22 -50 -37 -77 -14 -28 -27 -68 -30 -90 -6 -52
-55 -116 -90 -116 -45 0 -52 18 -50 136 l2 109 -30 3 -30 3 0 -112 0 -112 38
-40 c36 -38 38 -39 88 -32 74 10 105 50 149 190 11 39 26 79 32 91 14 29 6 68
-14 72 -12 2 -21 -6 -28 -25z"/>
<path d="M3922 1163 c-5 -16 -13 -36 -17 -46 -6 -13 -3 -16 9 -11 9 3 16 15
16 26 0 11 5 28 10 39 6 11 7 19 1 19 -5 0 -14 -12 -19 -27z"/>
<path d="M1144 3870 c-23 -15 -51 -31 -63 -35 -23 -7 -37 -46 -26 -72 4 -10 9
-29 10 -43 4 -44 34 -89 63 -97 15 -4 49 -7 76 -7 45 -1 52 2 72 32 31 45 51
135 37 165 -6 13 -37 37 -69 54 l-59 31 -41 -28z m36 -64 c0 -14 -4 -28 -10
-31 -5 -3 -10 -15 -10 -26 0 -21 -20 -25 -38 -7 -18 18 -15 36 13 63 31 32 45
32 45 1z"/>
<path d="M2472 3767 c-6 -7 -28 -19 -49 -26 -75 -27 -113 -84 -113 -171 0 -67
13 -95 57 -124 80 -53 157 -43 229 30 24 25 44 52 44 60 0 8 4 14 9 14 21 0
22 43 3 84 -29 61 -70 106 -96 106 -13 0 -33 9 -46 20 -27 24 -25 23 -38 7z
m93 -73 c27 -18 34 -40 10 -30 -9 3 -15 0 -15 -10 0 -11 -6 -15 -20 -11 -11 3
-20 2 -20 -3 0 -4 9 -19 20 -33 11 -14 20 -29 20 -34 0 -13 -47 -53 -54 -46
-12 12 -6 33 10 33 18 0 10 38 -12 56 -8 6 -14 19 -14 28 0 41 -54 5 -65 -43
-3 -16 -13 -35 -21 -42 -18 -15 -18 -29 3 -44 14 -11 13 -13 -12 -19 -35 -9
-45 4 -45 62 0 80 47 131 123 132 26 0 47 5 47 10 0 15 17 12 45 -6z m50 -94
c-5 -8 -11 -8 -17 -2 -6 6 -7 16 -3 22 5 8 11 8 17 2 6 -6 7 -16 3 -22z m-144
-135 c-1 -15 -24 -12 -29 3 -3 9 2 13 12 10 10 -1 17 -7 17 -13z"/>
<path d="M4000 4557 c0 -36 23 -157 30 -157 14 0 3 127 -13 155 l-16 30 -1
-28z"/>
<path d="M4316 4128 c-9 -36 -7 -50 7 -45 6 2 12 18 12 35 0 37 -10 42 -19 10z"/>
<path d="M2200 674 c0 -17 22 -14 28 4 2 7 -3 12 -12 12 -9 0 -16 -7 -16 -16z"/>
</g>
</svg>
