<?xml version="1.0" standalone="no"?>
<!DOCTYPE svg PUBLIC "-//W3C//DTD SVG 20010904//EN"
 "http://www.w3.org/TR/2001/REC-SVG-20010904/DTD/svg10.dtd">
<svg version="1.0" xmlns="http://www.w3.org/2000/svg"
 width="468pt" height="386pt" viewBox="0 0 468 386"
 preserveAspectRatio="xMidYMid meet">
<metadata>
Created by potrace 1.8, written by Peter Selinger 2001-2007
</metadata>
<g transform="translate(0,386) scale(0.091406,-0.091406)"
fill="#f2f6f9" stroke="none">
<path d="M2005 3656 c-35 -15 -48 -39 -65 -119 -11 -55 -12 -57 -38 -50 -34
10 -417 10 -495 1 l-59 -7 -52 55 c-65 69 -95 84 -161 84 -68 0 -97 -11 -115
-44 -16 -32 -3 -80 36 -133 13 -17 24 -40 24 -50 0 -11 5 -24 12 -31 18 -18
-7 -56 -67 -102 -73 -56 -162 -169 -195 -246 -23 -53 -86 -289 -96 -359 -4
-27 -10 -60 -15 -72 -4 -12 -1 -76 9 -150 18 -141 19 -311 2 -388 -6 -27 -15
-77 -20 -110 -5 -33 -19 -89 -30 -125 -11 -36 -20 -72 -20 -80 0 -8 -9 -37
-19 -65 -45 -115 -64 -302 -49 -469 3 -27 0 -30 -49 -44 -59 -16 -118 -65
-129 -106 -5 -21 -1 -33 17 -52 19 -21 31 -24 90 -24 37 0 83 7 104 15 39 17
65 8 65 -22 0 -14 30 -45 175 -183 49 -47 117 -90 142 -90 10 0 12 -16 7 -67
-6 -66 -5 -69 27 -108 63 -74 79 -85 123 -85 59 1 81 34 80 118 l0 63 110 -8
c204 -15 488 -5 510 17 6 6 18 10 28 10 11 0 40 11 66 25 59 31 80 32 92 1 12
-33 72 -94 105 -106 47 -18 102 -12 119 11 21 30 10 73 -34 139 -57 86 -58 80
32 167 84 82 195 214 218 261 8 15 22 39 32 54 10 14 18 31 18 37 0 9 32 83
80 186 21 44 49 141 57 195 3 19 11 42 18 50 7 8 15 38 18 65 3 28 10 70 15
95 6 25 14 70 17 100 l6 56 67 31 c50 24 85 33 140 36 66 4 74 2 84 -17 6 -11
15 -24 20 -27 7 -4 117 -4 249 1 4 0 14 16 23 35 14 29 21 34 40 29 13 -3 27
-1 30 5 4 6 14 11 23 11 9 0 32 12 52 28 31 23 45 27 96 26 33 0 80 -6 105
-13 44 -12 74 -19 172 -40 48 -10 162 -67 207 -102 13 -11 29 -19 36 -19 6 0
22 -11 35 -25 13 -14 31 -25 40 -25 9 0 21 -5 27 -11 15 -15 112 -39 161 -39
71 0 139 27 163 66 11 19 24 34 28 34 5 0 19 21 32 47 13 26 32 56 42 67 9 11
17 28 17 38 0 10 7 30 16 43 54 83 93 387 72 570 -10 87 -52 251 -83 320 -7
17 -21 50 -31 75 -23 58 -52 104 -102 161 -55 62 -107 77 -205 61 -66 -12 -99
-28 -157 -78 -14 -12 -62 -53 -106 -91 -45 -37 -101 -85 -125 -105 -46 -39
-260 -138 -424 -198 -33 -12 -69 -26 -80 -30 -62 -25 -105 -30 -147 -19 -41
11 -47 9 -130 -30 -65 -31 -96 -53 -124 -86 -20 -25 -41 -45 -46 -45 -25 0
-76 -33 -87 -56 -15 -33 -13 -160 3 -204 10 -28 18 -36 43 -38 47 -5 57 -52
11 -52 -11 0 -39 -19 -62 -42 -38 -39 -93 -78 -108 -78 -3 0 -7 46 -7 103 0
65 -7 128 -19 174 -21 80 -22 78 40 116 35 22 66 82 72 139 2 23 14 60 26 81
20 33 22 47 17 101 -6 58 -4 65 18 86 14 13 25 31 25 40 0 29 -30 59 -70 71
-22 7 -40 16 -40 21 0 5 -22 31 -50 58 -49 48 -50 48 -133 55 l-84 7 -119 79
c-71 48 -141 86 -174 96 -102 30 -130 53 -130 106 0 65 -21 118 -54 138 -36
22 -41 22 -81 5z m65 -55 c15 -30 12 -107 -5 -125 -12 -12 -21 -13 -46 -4 -17
6 -33 16 -35 23 -6 16 14 95 28 113 16 18 46 15 58 -7z m-885 -35 c59 -28 136
-99 194 -179 40 -55 61 -65 61 -30 0 9 -9 24 -21 34 -26 22 -19 34 23 44 27 6
187 11 241 7 6 -1 62 0 123 2 103 4 156 -2 291 -32 24 -5 48 -14 56 -20 7 -6
37 -14 67 -18 30 -4 67 -15 82 -25 14 -11 31 -19 38 -19 26 0 135 -85 220
-171 47 -48 111 -147 110 -171 0 -5 -17 -8 -38 -8 -20 0 -52 -4 -70 -10 -44
-12 -114 -76 -127 -114 -5 -17 -20 -36 -33 -42 -13 -6 -35 -28 -48 -48 -32
-47 -47 -47 -37 2 18 85 -3 167 -65 257 -54 79 -71 93 -156 136 -67 34 -92 40
-160 44 -44 3 -81 7 -84 9 -2 2 -42 -9 -89 -25 -183 -61 -284 -204 -284 -397
0 -78 4 -101 25 -149 46 -99 77 -138 151 -185 87 -56 92 -58 190 -72 145 -22
205 -12 313 55 32 19 101 113 116 156 18 51 36 54 36 6 0 -46 9 -59 72 -103
39 -27 52 -31 81 -26 l35 6 -5 -43 c-3 -27 -1 -47 6 -51 6 -4 11 -14 11 -23 0
-31 40 -73 69 -73 33 0 43 11 62 64 14 38 54 66 70 49 20 -21 7 -389 -18 -518
-9 -44 -19 -102 -23 -130 -14 -87 -77 -309 -105 -370 -10 -22 -21 -49 -26 -60
-51 -132 -125 -249 -221 -350 -26 -27 -58 -61 -71 -75 -12 -14 -55 -55 -95
-92 -61 -57 -78 -68 -107 -68 -19 0 -35 -4 -35 -8 0 -12 -62 -40 -149 -68 -69
-23 -87 -25 -300 -25 -125 0 -242 5 -261 11 -19 5 -51 10 -71 10 -20 0 -38 3
-42 6 -3 4 -39 17 -79 31 -129 43 -154 59 -269 175 -95 96 -116 124 -157 207
l-47 95 1 161 c0 171 -4 150 72 390 13 44 28 100 32 125 4 25 17 91 29 147 25
117 30 271 13 403 -14 105 -1 274 28 380 12 41 25 93 30 115 5 22 12 54 16 70
17 71 189 281 262 319 24 12 27 11 50 -15 13 -16 32 -29 43 -29 28 0 24 35 -6
58 -14 11 -32 36 -40 55 -8 20 -20 40 -27 44 -24 15 -78 114 -78 142 0 19 7
31 23 39 33 16 47 14 102 -12z m925 -91 c0 -8 -4 -15 -10 -15 -5 0 -10 7 -10
15 0 8 5 15 10 15 6 0 10 -7 10 -15z m2358 -219 c78 -73 146 -217 183 -386 11
-52 25 -103 30 -113 6 -10 10 -85 10 -166 0 -122 -5 -166 -24 -248 -25 -102
-41 -143 -57 -143 -21 0 -13 60 19 135 15 33 21 365 9 425 -4 19 -11 56 -16
82 -5 26 -13 53 -19 60 -6 7 -20 43 -32 80 -27 88 -40 114 -93 171 -95 102
-188 115 -261 35 -111 -121 -166 -246 -188 -431 -17 -143 -18 -152 -8 -164 7
-8 4 -18 -10 -32 -16 -16 -18 -21 -6 -21 8 0 15 -7 15 -15 0 -8 -4 -15 -9 -15
-17 0 -19 -70 -5 -147 9 -43 18 -91 21 -108 3 -16 9 -34 13 -40 4 -5 13 -28
20 -50 7 -22 21 -51 31 -64 11 -13 19 -31 19 -40 0 -18 92 -101 112 -101 8 0
19 -5 26 -12 38 -38 -26 -37 -82 1 -44 31 -126 130 -126 154 0 7 -4 17 -8 22
-5 6 -14 28 -20 50 -35 122 -46 155 -54 155 -15 0 -8 -79 12 -132 28 -73 41
-98 69 -136 34 -46 20 -50 -36 -10 -53 39 -85 52 -188 73 -38 8 -101 22 -140
32 -38 9 -91 16 -117 14 -65 -2 -128 14 -177 45 -52 35 -79 101 -94 235 -15
136 2 223 54 280 23 25 53 45 81 54 40 12 101 36 140 56 10 5 23 9 30 9 7 0
49 17 93 39 44 21 98 44 120 51 70 23 106 44 146 88 38 41 59 52 59 32 0 -22
18 -7 60 51 58 80 118 132 193 167 55 26 64 28 116 19 41 -7 65 -17 89 -41z
m-1775 -77 c42 -11 97 -66 135 -133 32 -56 43 -202 18 -241 l-17 -26 -28 20
c-26 19 -28 25 -24 64 5 41 3 46 -36 82 -22 21 -41 45 -41 53 0 22 -43 117
-78 170 -13 21 -13 22 9 22 13 0 41 -5 62 -11z m1685 -8 c57 -30 115 -93 135
-147 11 -27 22 -58 27 -69 14 -35 28 -78 46 -150 30 -113 24 -344 -12 -486 -8
-31 -14 -71 -14 -89 0 -48 -41 -127 -107 -205 l-59 -70 -58 0 c-57 1 -58 1
-112 58 -30 32 -54 62 -54 67 0 5 -13 37 -29 72 -50 108 -62 158 -38 158 7 0
30 9 52 20 22 11 47 20 57 20 9 0 20 5 24 11 3 6 17 8 31 4 57 -14 133 94 133
190 0 65 -29 154 -55 168 -11 6 -45 14 -75 18 -106 14 -174 30 -182 42 -5 7
-6 24 -3 40 3 15 8 42 11 60 12 65 95 218 152 280 31 33 76 36 130 8z m-2331
-33 c15 -7 44 -25 63 -40 19 -16 40 -32 45 -37 74 -59 137 -220 120 -307 -10
-57 -84 -201 -122 -239 -46 -46 -74 -60 -158 -80 -158 -36 -327 33 -420 173
-53 80 -66 229 -27 307 48 96 145 193 213 213 102 31 227 36 286 10z m661
-221 c22 -10 32 -57 13 -57 -5 0 -23 -11 -39 -25 -61 -51 -182 -38 -182 19 0
65 125 103 208 63z m-25 -145 l89 23 19 -24 c11 -14 19 -39 19 -62 0 -31 -8
-46 -39 -79 -35 -37 -43 -41 -73 -35 -27 5 -43 0 -86 -29 -73 -47 -154 -57
-210 -26 -39 22 -62 62 -62 108 0 12 14 43 30 69 40 64 88 78 169 51 54 -18
56 -18 144 4z m581 -2 c25 -9 25 -10 9 -47 -21 -51 -53 -198 -53 -246 0 -21 6
-53 14 -70 7 -18 20 -55 28 -82 8 -28 35 -78 59 -112 42 -59 46 -62 97 -69 28
-3 52 -10 52 -14 0 -13 -78 -40 -117 -40 -31 0 -43 8 -96 65 -33 36 -66 65
-74 65 -30 0 -9 -41 48 -94 44 -41 60 -62 57 -78 -3 -21 -8 -22 -101 -22 -55
-1 -102 3 -107 9 -4 6 -13 53 -20 105 -7 52 -21 111 -31 132 -43 86 -55 193
-30 266 11 31 23 70 26 87 7 33 77 105 101 105 9 0 28 8 42 19 15 10 36 21 47
24 11 2 21 5 22 6 1 0 13 -3 27 -9z m909 -56 c27 -4 51 -12 53 -19 3 -7 -4
-28 -15 -47 -19 -31 -20 -42 -11 -111 5 -42 16 -88 25 -101 19 -28 12 -35 -60
-60 -94 -33 -95 -32 -96 5 -10 369 -11 353 29 345 15 -3 49 -8 75 -12z m157
-70 c16 -47 8 -115 -18 -151 -11 -15 -21 -37 -23 -47 -2 -11 -9 -21 -15 -23
-37 -12 -48 189 -14 245 17 27 23 31 39 22 11 -5 25 -26 31 -46z m-1360 -51
c0 -10 -6 -36 -14 -57 -9 -25 -12 -61 -8 -98 4 -48 2 -58 -11 -58 -30 0 -41
141 -17 201 14 32 50 41 50 12z m-272 -101 c3 -38 1 -43 -24 -53 -15 -5 -39
-9 -53 -7 -21 2 -27 9 -29 35 -3 28 2 36 30 53 51 31 72 24 76 -28z m312 -281
c0 -16 3 -42 6 -60 6 -26 3 -32 -19 -40 -19 -7 -34 -6 -56 5 -36 18 -36 19
-16 67 25 60 85 80 85 28z m-117 -26 c-5 -25 -33 -57 -33 -37 0 6 5 14 10 17
6 3 10 15 10 26 0 10 4 19 9 19 4 0 6 -11 4 -25z m-55 -60 c2 -22 8 -45 13
-52 12 -13 -19 -38 -62 -48 -23 -6 -27 -3 -32 22 -8 42 3 86 27 105 33 27 51
18 54 -27z m1772 6 c0 -32 -113 -181 -137 -181 -7 0 -24 -11 -39 -25 -28 -26
-89 -36 -81 -12 2 6 10 13 18 13 8 1 20 2 27 3 23 2 119 100 154 156 29 48 58
71 58 46z m-1710 -32 c10 -18 9 -20 -7 -17 -10 2 -19 11 -21 21 -5 24 15 21
28 -4z m-2272 -1014 c24 -50 23 -51 -46 -69 -56 -15 -121 -9 -129 11 -7 19 30
58 81 82 59 29 69 26 94 -24z m1544 -342 c10 -9 18 -20 18 -24 0 -4 14 -30 31
-58 35 -57 33 -81 -8 -81 -37 0 -84 30 -119 76 -23 30 -26 38 -14 42 8 3 26
17 40 32 31 34 29 34 52 13z m-1032 -100 c64 -22 70 -29 70 -85 0 -61 -14 -88
-44 -88 -47 0 -116 88 -116 147 0 45 7 56 29 48 9 -4 36 -13 61 -22z"/>
<path d="M1190 3423 c0 -23 139 -156 156 -149 8 3 14 10 14 15 0 11 -150 151
-162 151 -4 0 -8 -8 -8 -17z"/>
<path d="M2047 3273 c-4 -3 -7 -12 -7 -20 0 -11 4 -11 20 -3 11 6 18 15 15 21
-7 11 -19 12 -28 2z"/>
<path d="M1653 1588 c-6 -7 -13 -39 -17 -72 -4 -33 -15 -71 -26 -86 -11 -16
-20 -31 -20 -34 0 -10 -64 -65 -83 -72 -10 -3 -25 0 -33 7 -20 16 -13 79 16
165 21 61 20 84 -3 84 -15 0 -53 -108 -62 -177 -7 -55 19 -121 50 -129 26 -6
54 6 107 49 42 34 86 124 95 195 6 55 -6 92 -24 70z"/>
<path d="M3974 2963 c-3 -10 -12 -35 -20 -57 -19 -50 -29 -184 -16 -216 l10
-25 5 25 c3 14 11 59 17 100 7 41 19 95 27 119 14 45 12 71 -7 71 -6 0 -13 -8
-16 -17z"/>
<path d="M3871 2761 c-34 -21 -49 -223 -27 -355 20 -116 32 -150 47 -140 8 5
9 29 5 78 -21 217 -21 244 -10 326 13 87 10 106 -15 91z"/>
<path d="M1925 2988 c-41 -7 -54 -15 -75 -45 -35 -52 -31 -109 10 -145 75 -63
181 -42 226 44 22 42 17 80 -14 117 -31 38 -65 44 -147 29z m105 -38 c0 -5 -7
-10 -15 -10 -8 0 -15 5 -15 10 0 6 7 10 15 10 8 0 15 -4 15 -10z m-82 -57 c-3
-44 -5 -48 -27 -45 -52 5 -56 56 -6 81 33 16 36 13 33 -36z"/>
<path d="M3143 2698 c-32 -42 -50 -167 -26 -175 7 -3 14 6 17 19 3 13 12 53
20 89 9 36 16 68 16 72 0 11 -17 8 -27 -5z"/>
</g>
</svg>
