<?xml version="1.0" standalone="no"?>
<!DOCTYPE svg PUBLIC "-//W3C//DTD SVG 20010904//EN"
 "http://www.w3.org/TR/2001/REC-SVG-20010904/DTD/svg10.dtd">
<svg version="1.0" xmlns="http://www.w3.org/2000/svg"
 width="468pt" height="319pt" viewBox="0 0 468 319"
 preserveAspectRatio="xMidYMid meet">
<metadata>
Created by potrace 1.8, written by Peter Selinger 2001-2007
</metadata>
<g transform="translate(0,319) scale(0.066102,-0.066102)"
fill="#f2f6f9" stroke="none">
<path d="M1871 4351 c-30 -5 -39 -15 -67 -66 -18 -33 -33 -70 -33 -82 -1 -23
-3 -23 -132 -23 -72 0 -138 -4 -148 -9 -10 -6 -53 -12 -97 -16 -43 -3 -97 -10
-119 -16 -22 -6 -56 -14 -75 -19 -19 -5 -53 -14 -75 -20 -79 -22 -85 -23 -85
-8 0 17 -39 54 -104 98 -48 32 -50 33 -100 21 -38 -9 -59 -21 -83 -48 -18 -20
-30 -40 -27 -45 6 -9 -15 -77 -28 -92 -18 -22 -13 -30 70 -119 l26 -28 -27
-25 c-15 -13 -34 -38 -42 -54 -9 -17 -19 -30 -23 -30 -13 0 -81 -97 -106 -152
-82 -181 -90 -223 -76 -385 16 -183 19 -213 25 -223 3 -5 6 -62 7 -127 1 -89
-3 -127 -15 -153 -16 -37 -38 -123 -38 -152 0 -10 -11 -37 -23 -61 -13 -24
-27 -58 -31 -76 -4 -18 -32 -89 -62 -159 -30 -70 -59 -152 -65 -182 -17 -96
-18 -249 -2 -294 7 -23 14 -51 14 -63 0 -19 -5 -22 -38 -20 -52 2 -157 -69
-167 -113 -10 -44 0 -62 46 -89 37 -21 49 -22 115 -16 43 4 78 12 85 21 18 22
25 17 54 -41 16 -30 31 -55 35 -55 3 0 11 -15 18 -33 15 -41 153 -182 225
-230 31 -21 59 -42 62 -47 3 -5 0 -38 -6 -74 -10 -51 -9 -71 0 -94 16 -38 43
-63 73 -67 12 -1 35 -6 51 -10 23 -6 32 -2 62 31 28 31 35 46 35 80 0 46 10
55 50 44 14 -4 108 -6 210 -5 137 2 201 6 245 19 33 9 72 14 87 11 15 -4 37
-1 50 6 13 7 39 12 58 10 23 -1 45 5 60 17 14 10 40 24 58 31 17 8 32 17 32
22 0 5 7 9 15 9 9 0 15 -9 15 -25 0 -14 8 -33 18 -43 9 -10 26 -34 36 -53 29
-50 64 -76 112 -84 52 -7 62 -3 80 41 20 48 18 68 -16 117 -16 25 -30 50 -30
55 0 6 -9 13 -19 17 -29 9 -38 46 -15 61 11 8 24 17 29 22 6 4 24 14 42 21 18
7 36 24 41 39 6 15 42 59 81 99 39 39 71 78 71 85 0 7 18 36 40 63 22 28 44
60 49 72 5 11 15 24 20 28 6 3 11 18 11 33 0 16 8 32 20 40 11 7 20 23 20 36
0 13 14 38 30 56 22 24 30 42 30 70 0 21 6 43 14 49 8 6 17 32 20 56 4 25 12
47 17 51 6 3 8 13 5 20 -3 8 3 34 13 57 39 87 56 162 67 287 7 94 13 105 55
118 21 7 47 12 58 12 11 0 23 5 26 10 3 6 17 10 30 10 13 0 27 5 30 10 3 6 14
10 23 10 27 0 107 90 120 133 10 37 9 41 -22 74 -45 49 -101 55 -191 19 -36
-14 -69 -26 -74 -26 -10 0 -8 297 3 307 3 4 36 8 71 10 35 1 78 9 94 18 17 8
36 15 44 15 18 0 167 154 167 173 0 8 6 20 14 26 8 7 19 41 26 77 19 113 -10
232 -73 301 -42 46 -148 103 -190 103 -14 0 -29 5 -32 10 -7 11 -158 14 -169
3 -4 -4 -26 -13 -49 -20 l-42 -12 -43 50 c-25 27 -72 68 -106 91 -33 23 -79
56 -101 74 -63 50 -197 113 -304 141 -9 2 -12 13 -8 37 3 19 3 52 0 75 -5 36
-12 45 -48 66 -23 14 -44 24 -46 24 -2 -1 -19 -4 -38 -8z m81 -71 c15 -21 17
-35 12 -69 -6 -37 -9 -42 -28 -37 -12 3 -48 6 -80 6 -47 0 -57 3 -48 12 7 7
12 20 12 29 0 21 79 91 99 87 7 -2 22 -14 33 -28z m-1005 -145 c26 -22 54 -62
77 -109 40 -82 61 -105 78 -88 7 7 5 20 -11 45 -29 47 -27 55 17 62 20 3 45
11 55 16 25 14 157 39 237 45 36 2 85 10 108 16 24 6 87 12 140 14 54 2 104 4
112 4 50 4 195 -12 201 -21 4 -7 17 -9 30 -6 13 4 43 -3 74 -18 28 -13 71 -29
94 -36 24 -7 56 -25 71 -41 16 -15 34 -28 40 -28 19 0 125 -76 190 -136 85
-79 151 -195 163 -284 2 -11 -13 -16 -59 -21 -69 -6 -108 -30 -136 -82 -11
-22 -13 -37 -7 -49 8 -15 2 -22 -38 -40 -54 -26 -94 -66 -124 -121 -17 -33
-18 -43 -9 -73 6 -19 17 -34 25 -34 7 0 16 -7 19 -16 3 -8 26 -24 51 -35 25
-11 45 -26 45 -33 0 -7 9 -21 20 -31 14 -13 20 -31 20 -60 0 -26 6 -48 15 -55
15 -13 92 -15 126 -5 17 6 27 46 32 125 2 28 7 36 25 38 20 3 22 -1 23 -40 1
-106 -2 -286 -6 -318 -2 -19 -8 -69 -13 -110 -17 -143 -57 -307 -123 -501 -10
-31 -19 -63 -19 -71 0 -29 -128 -315 -155 -348 -7 -8 -27 -42 -43 -75 -30 -59
-102 -158 -145 -200 -12 -12 -44 -45 -72 -75 -55 -59 -135 -114 -207 -142 -26
-10 -72 -27 -100 -38 -60 -23 -157 -48 -238 -61 -30 -4 -91 -15 -135 -24 -44
-9 -100 -14 -125 -11 -25 3 -97 7 -161 10 -64 2 -123 7 -130 12 -17 10 -79 13
-79 4 0 -4 9 -15 20 -25 23 -21 20 -69 -8 -117 -18 -31 -29 -34 -66 -17 -28
13 -38 41 -26 73 5 13 4 29 -1 37 -5 8 -6 32 -3 55 6 42 -11 74 -40 74 -7 0
-21 9 -31 20 -10 11 -24 20 -31 20 -7 0 -18 9 -24 19 -5 11 -19 23 -30 26 -11
4 -26 17 -33 30 -6 13 -31 45 -55 72 -92 105 -154 220 -178 333 -8 40 -17 77
-20 82 -7 11 -16 119 -16 203 -1 88 15 169 41 220 12 21 21 45 21 52 0 7 4 21
9 31 17 31 49 106 56 132 4 14 25 60 46 102 22 43 39 88 39 100 0 13 9 68 19
123 19 101 23 238 7 264 -11 17 -15 49 -17 121 0 30 -6 61 -11 68 -7 8 -9 55
-5 130 5 124 31 213 84 292 13 19 23 40 23 47 0 7 19 35 43 62 23 28 52 64 65
81 29 38 47 38 67 1 18 -35 46 -46 75 -31 20 11 17 15 -47 79 -62 61 -71 74
-90 141 -20 69 -21 76 -6 107 37 80 104 94 170 38z m1828 -341 c27 -2 64 -10
80 -18 17 -9 39 -16 50 -16 27 0 125 -72 120 -87 -2 -7 0 -15 6 -18 8 -6 39
-70 39 -82 0 -3 -18 -2 -39 2 -34 6 -43 3 -70 -22 -18 -17 -33 -42 -36 -64 -6
-31 -3 -41 22 -67 33 -36 90 -52 99 -28 8 20 34 21 34 2 0 -40 -167 -216 -204
-216 -6 0 -29 -9 -51 -20 -21 -11 -40 -18 -43 -16 -2 2 4 25 12 51 21 60 13
88 -36 129 -34 30 -38 37 -29 54 24 45 -1 134 -44 154 -20 9 -24 18 -23 54 0
32 -9 60 -36 110 -39 70 -37 83 9 84 11 0 31 6 45 14 14 7 29 10 34 8 6 -3 33
-7 61 -8z m269 -280 c9 -8 16 -22 16 -30 0 -17 -26 -19 -33 -1 -3 7 -6 5 -6
-5 -1 -20 -45 -26 -56 -8 -11 18 5 49 28 53 12 2 25 5 29 6 4 0 14 -6 22 -15z
m-384 -40 c36 -36 39 -64 7 -64 -13 0 -29 -6 -36 -12 -12 -13 -111 -19 -111
-6 0 3 -13 9 -30 13 -39 9 -39 31 1 74 28 32 33 33 85 29 43 -4 60 -11 84 -34z
m-132 -137 c7 -6 37 -7 72 -3 63 7 86 0 128 -37 17 -16 22 -31 22 -66 -1 -50
-12 -70 -50 -88 -44 -20 -76 -23 -96 -8 -24 18 -82 18 -114 0 -30 -17 -93 -19
-123 -3 -36 18 -67 61 -67 90 0 33 47 89 98 116 38 21 103 21 130 -1z m52
-261 c0 -8 -4 -17 -9 -20 -5 -4 -12 -28 -16 -56 -6 -47 -9 -50 -42 -56 -37 -7
-62 11 -43 30 6 6 10 34 10 63 l0 53 50 0 c37 0 50 -4 50 -14z m348 -292 c12
-8 22 -22 22 -30 0 -66 -127 -154 -222 -154 -13 0 -29 -5 -35 -11 -22 -22 -30
-1 -20 53 18 101 15 99 137 136 81 25 90 26 118 6z m-2576 -1126 c22 -34 30
-76 16 -84 -12 -8 -30 -11 -125 -20 -54 -6 -63 -4 -69 10 -4 11 0 25 12 36 18
17 131 79 145 80 4 0 13 -10 21 -22z m1675 -543 c29 -38 53 -77 53 -85 0 -22
-20 -40 -43 -40 -27 0 -112 91 -127 136 -11 33 -11 39 6 51 33 24 57 10 111
-62z"/>
<path d="M870 4045 c0 -33 42 -96 81 -120 41 -26 59 -26 59 1 0 19 -108 134
-127 134 -7 0 -13 -7 -13 -15z"/>
<path d="M1690 3825 c-98 -20 -154 -38 -163 -52 -4 -7 -12 -13 -17 -13 -6 0
-19 -8 -31 -17 -145 -119 -203 -272 -171 -455 10 -57 61 -161 87 -175 7 -5 37
-30 67 -57 50 -47 139 -93 158 -81 4 3 20 1 35 -5 37 -14 224 -15 238 -1 6 6
25 11 43 11 19 0 41 9 58 25 15 14 34 25 42 25 8 0 22 9 31 20 10 11 22 20 28
20 16 1 75 87 75 109 0 11 9 35 20 53 11 20 23 70 30 127 10 79 9 100 -3 135
-9 22 -19 57 -22 76 -13 61 -70 150 -97 150 -5 0 -35 17 -66 38 -71 48 -82 52
-162 63 -36 5 -76 11 -90 13 -14 3 -54 -1 -90 -9z m153 -44 c23 -6 58 -13 78
-16 20 -3 56 -21 80 -40 24 -19 49 -35 55 -35 11 0 84 -74 84 -85 0 -3 9 -39
20 -80 51 -189 -22 -385 -174 -470 -26 -15 -50 -24 -53 -22 -3 3 -23 -1 -45
-9 -77 -27 -271 -11 -344 29 -95 50 -164 135 -189 232 -33 129 -9 234 82 353
45 60 88 89 183 123 80 29 152 36 223 20z"/>
<path d="M1816 3559 c-33 -26 -49 -60 -52 -116 -3 -38 1 -45 38 -78 37 -34 44
-37 89 -33 80 8 160 87 143 141 -27 88 -153 137 -218 86z m82 -46 c2 -12 -4
-35 -13 -52 -12 -24 -22 -31 -45 -31 -38 0 -39 22 -4 73 28 42 57 46 62 10z
m61 -95 c-8 -14 -14 -18 -17 -10 -4 13 17 46 25 38 3 -2 -1 -15 -8 -28z"/>
<path d="M2050 2179 c-19 -10 -46 -18 -60 -19 -15 0 -31 -5 -37 -11 -7 -7 -33
-15 -60 -20 -26 -4 -56 -10 -65 -14 -13 -5 -21 0 -29 19 -14 30 -49 34 -89 11
-14 -8 -36 -14 -50 -15 -37 0 -70 -27 -70 -56 0 -15 -7 -27 -17 -30 -18 -6
-35 -12 -86 -33 -29 -12 -32 -9 -39 34 -4 23 -37 33 -48 15 -4 -7 -4 -28 0
-48 24 -112 27 -137 19 -159 -9 -25 -29 -29 -58 -13 -29 15 -54 88 -52 153 2
45 -1 59 -14 64 -23 8 -34 -13 -28 -57 5 -33 2 -40 -25 -59 -17 -11 -39 -21
-50 -21 -19 0 -67 -13 -107 -30 -11 -4 -47 -13 -80 -20 -97 -18 -171 -48 -199
-79 -18 -19 -17 -22 8 -72 14 -29 26 -58 26 -65 0 -6 7 -17 15 -24 8 -7 15
-20 15 -30 0 -32 30 -78 56 -84 13 -4 41 -2 62 3 20 6 75 20 122 31 47 12 112
30 145 40 33 10 78 21 100 25 57 9 166 35 190 45 11 4 42 14 70 20 44 10 51 9
62 -6 7 -10 13 -21 13 -25 0 -14 41 -21 54 -10 15 12 84 12 92 -1 10 -16 64
32 64 57 0 17 7 26 23 29 23 5 111 19 138 21 8 1 37 13 65 27 l49 25 -2 59
c-1 32 -7 95 -13 139 -6 44 -14 99 -16 123 -5 40 -33 84 -51 81 -5 -1 -24 -9
-43 -20z m52 -65 c4 -30 0 -37 -21 -48 -14 -8 -44 -17 -66 -21 -22 -4 -44 -10
-50 -15 -5 -4 -36 -17 -68 -29 -46 -17 -59 -18 -63 -7 -3 7 -4 17 -3 22 1 5
-2 18 -6 28 -10 24 17 46 57 46 30 0 157 38 173 52 22 20 43 8 47 -28z m-328
-19 c-4 -8 -18 -15 -33 -15 -15 0 -32 -5 -38 -11 -6 -6 -27 -9 -46 -7 -73 6 2
43 95 47 20 1 26 -3 22 -14z m20 -69 c8 -19 19 -67 25 -107 7 -40 16 -78 22
-85 13 -16 8 -76 -8 -81 -18 -6 -31 26 -43 103 -5 38 -17 92 -27 120 -25 77 2
120 31 50z m-64 -6 c6 -12 10 -33 8 -48 -2 -21 -9 -28 -30 -30 -23 -3 -28 1
-28 17 0 12 -6 30 -12 41 -11 17 -10 22 2 30 24 16 49 11 60 -10z m384 -17
c10 -64 8 -73 -16 -72 -50 2 -135 -14 -175 -32 -55 -24 -60 -24 -67 6 -8 33
-4 40 36 55 18 6 42 16 53 20 41 17 150 58 156 59 4 1 9 -16 13 -36z m-510
-25 c17 -42 5 -66 -37 -72 -17 -3 -49 -8 -70 -11 -38 -6 -38 -6 -35 25 2 27
12 37 53 61 28 15 56 28 62 29 7 0 19 -15 27 -32z m-326 -93 c-2 -12 -20 -23
-53 -32 -68 -18 -178 -55 -190 -63 -5 -4 -37 -12 -70 -19 -33 -7 -71 -17 -84
-22 -16 -7 -28 -6 -35 1 -16 17 27 45 98 65 34 9 75 20 91 25 17 5 66 18 110
30 44 13 89 29 100 36 22 16 39 5 33 -21z m466 29 c25 -9 20 -59 -9 -90 -14
-15 -28 -24 -32 -20 -8 8 -14 96 -7 108 6 9 26 10 48 2z m389 -40 c7 -42 1
-60 -21 -69 -16 -6 -210 -45 -224 -45 -5 0 -8 20 -8 44 l0 43 53 16 c28 9 75
19 102 23 28 3 57 10 65 15 24 13 27 11 33 -27z m-505 -22 l1 -49 -72 -17
c-40 -9 -133 -28 -207 -42 -74 -13 -144 -28 -155 -33 -44 -19 -163 -51 -225
-62 -61 -10 -65 -10 -83 12 -31 39 -19 52 63 69 68 14 108 26 165 50 11 5 51
19 89 32 37 12 71 29 73 36 4 9 16 2 38 -22 27 -30 39 -36 74 -36 36 0 44 4
58 29 17 29 61 51 104 51 13 0 33 7 43 15 29 22 32 19 34 -33z m150 -84 c3
-22 -1 -28 -15 -28 -11 0 -24 5 -31 12 -7 7 -12 20 -12 31 0 14 6 18 28 15 21
-2 28 -9 30 -30z m-118 -5 c0 -29 -12 -38 -65 -50 -27 -6 -87 -20 -133 -32
-46 -12 -96 -21 -111 -21 -15 0 -31 -3 -35 -7 -7 -7 -92 -31 -211 -59 -38 -9
-90 -22 -114 -29 -53 -16 -71 -11 -71 21 0 19 5 24 25 24 28 0 99 16 160 35
78 25 151 44 235 61 47 9 103 21 125 26 22 5 58 13 80 17 22 5 51 13 65 19 37
16 50 14 50 -5z m130 -69 c0 -10 -13 -14 -47 -14 -50 0 -50 8 0 26 36 13 47
10 47 -12z m70 11 c0 -8 -6 -15 -14 -15 -17 0 -28 14 -19 24 12 12 33 6 33 -9z"/>
<path d="M3970 4174 c-54 -23 -138 -93 -202 -167 -62 -72 -68 -92 -40 -126 16
-20 19 -20 57 -6 22 8 58 14 81 15 22 0 44 4 50 9 16 15 70 21 83 8 6 -6 11
-28 11 -49 0 -33 -3 -38 -27 -44 -16 -3 -39 -9 -53 -14 -14 -5 -32 -8 -40 -8
-8 0 -35 -5 -58 -11 l-44 -12 5 -52 c3 -29 9 -70 15 -92 24 -103 45 -182 53
-200 4 -11 10 -31 13 -45 6 -34 41 -157 71 -255 29 -93 52 -182 65 -245 13
-63 59 -225 80 -285 10 -27 23 -72 30 -100 15 -62 47 -165 70 -225 10 -25 25
-70 35 -100 29 -91 84 -180 110 -180 7 0 28 16 48 35 31 30 36 42 42 101 5 38
3 86 -2 111 -12 50 -3 61 29 39 12 -9 32 -16 43 -16 20 0 22 -8 33 -147 6 -82
19 -179 28 -218 9 -38 18 -86 20 -106 2 -20 13 -56 24 -80 11 -24 20 -55 20
-69 0 -24 20 -92 55 -189 31 -87 110 -227 151 -270 l42 -43 -29 -41 c-16 -22
-29 -45 -29 -52 0 -6 -11 -22 -25 -35 -14 -13 -25 -29 -25 -37 0 -7 -4 -13
-10 -13 -16 0 -22 -43 -11 -73 13 -33 57 -73 89 -82 49 -12 162 84 162 140 0
11 12 31 25 44 23 21 27 22 43 9 23 -20 176 -96 232 -115 51 -18 135 -55 265
-119 84 -41 97 -44 189 -48 54 -3 103 -9 109 -15 5 -5 12 -34 14 -63 7 -85 46
-148 90 -148 54 0 143 103 143 165 0 48 17 65 63 64 86 -1 158 8 175 23 9 8
25 18 34 21 15 5 45 24 123 77 99 66 235 216 235 258 0 7 30 27 67 44 45 20
81 46 108 76 57 64 57 65 29 106 -28 40 -41 42 -126 21 l-28 -7 0 58 c0 33 -9
100 -21 149 -26 120 -39 294 -28 397 24 223 20 318 -31 798 -23 216 -144 513
-260 638 -16 18 -30 35 -30 38 0 3 8 17 18 32 67 98 73 110 79 176 5 60 4 69
-17 91 -13 14 -38 27 -56 31 -40 7 -145 -27 -221 -73 -30 -18 -58 -33 -60 -33
-3 0 -21 14 -40 30 -19 17 -45 30 -60 30 -14 0 -49 11 -77 25 -123 59 -327 91
-517 81 -72 -4 -136 -9 -143 -12 -6 -2 -43 26 -81 62 -124 118 -167 130 -229
68 -33 -33 -36 -40 -36 -96 0 -43 6 -70 20 -93 l20 -32 -55 -37 -54 -38 -44
26 c-24 14 -59 26 -78 26 -19 0 -40 5 -46 11 -21 21 -263 -48 -263 -76 0 -6
-13 -23 -28 -38 -25 -25 -32 -26 -60 -16 -67 23 -126 -63 -102 -151 6 -21 15
-42 21 -46 7 -4 8 -27 4 -65 -7 -57 -5 -62 34 -128 23 -38 41 -74 41 -79 0 -6
-8 -24 -17 -40 -15 -27 -16 -36 -5 -79 13 -46 54 -103 76 -103 32 -1 36 -16
15 -66 -21 -49 -21 -52 -4 -78 10 -15 34 -33 53 -41 l34 -15 -8 -67 c-4 -38
-7 -85 -6 -105 3 -44 -6 -47 -63 -18 -22 10 -52 21 -66 24 -23 5 -29 17 -58
113 -17 59 -43 142 -56 183 -13 41 -26 92 -30 113 -3 21 -15 58 -26 84 -10 25
-20 64 -20 87 -1 22 -7 63 -15 90 -19 68 -19 68 30 98 50 30 49 21 11 133 -9
28 -19 57 -22 65 -2 9 10 31 27 49 23 24 30 39 26 54 -20 70 -19 75 10 81 16
4 44 19 62 34 33 27 33 28 22 73 -14 55 -46 95 -83 104 -22 6 -27 13 -27 37 0
32 -17 111 -30 143 -5 11 -17 39 -26 63 -11 25 -31 51 -50 63 -38 23 -114 25
-164 3z m135 -51 c23 -16 47 -39 53 -53 25 -57 46 -197 33 -218 -4 -7 -34 -14
-68 -16 l-61 -4 -12 48 c-17 72 -30 79 -127 75 -54 -2 -90 -8 -105 -19 -28
-20 -48 -21 -48 -2 0 23 175 179 222 198 58 23 64 22 113 -9z m1000 -232 c3
-5 19 -12 35 -16 31 -7 80 -56 80 -81 0 -16 -39 -34 -75 -34 -14 0 -39 -9 -57
-20 -44 -27 -55 -25 -63 9 -9 41 -10 125 -1 139 8 14 72 16 81 3z m-805 -100
c18 -35 11 -60 -22 -81 -36 -22 -108 -44 -175 -55 -24 -4 -52 -14 -64 -23 -20
-17 -20 -19 -5 -91 8 -40 20 -78 25 -85 5 -6 12 -31 15 -55 3 -24 14 -76 25
-115 10 -39 24 -93 29 -121 5 -27 25 -106 44 -175 19 -69 45 -168 57 -220 13
-52 41 -148 62 -212 21 -64 39 -126 39 -137 0 -11 4 -22 9 -25 5 -3 11 -20 14
-38 3 -18 13 -70 22 -115 16 -76 16 -86 1 -138 -17 -57 -41 -79 -57 -54 -5 8
-21 48 -35 89 -15 41 -35 93 -44 115 -10 22 -23 56 -28 75 -5 19 -19 67 -31
105 -11 39 -26 90 -32 115 -6 25 -15 54 -19 65 -4 11 -22 74 -39 140 -18 66
-37 136 -43 155 -6 19 -19 69 -29 110 -10 41 -34 129 -54 195 -21 66 -41 138
-45 160 -4 22 -19 81 -33 130 -38 135 -55 212 -48 222 6 10 75 27 166 43 28 4
68 13 90 19 22 6 48 8 57 5 10 -3 26 -1 35 5 10 6 37 11 60 11 32 0 45 -5 53
-19z m1358 -51 c19 -5 40 -6 48 -3 8 3 21 -1 30 -8 14 -12 53 -21 149 -35 61
-9 158 -44 182 -66 12 -11 25 -18 30 -15 5 3 15 2 23 -3 10 -6 4 -19 -28 -56
-23 -26 -42 -55 -42 -65 0 -30 37 -23 54 9 8 16 33 51 54 79 32 40 51 54 103
72 35 13 69 27 75 32 6 5 32 12 57 15 43 6 46 5 62 -26 11 -21 15 -44 11 -63
-10 -47 -85 -176 -138 -234 -26 -29 -48 -58 -48 -63 0 -21 39 -9 63 20 14 17
30 30 34 30 38 0 157 -201 219 -370 68 -183 100 -464 89 -785 -10 -332 -7
-519 10 -606 39 -189 55 -296 50 -319 -10 -41 -57 -140 -66 -140 -5 0 -9 -12
-9 -27 0 -35 -50 -115 -86 -140 -15 -10 -41 -33 -57 -51 -65 -68 -208 -125
-355 -139 -52 -5 -66 -3 -82 12 -11 10 -23 15 -27 11 -4 -4 -9 -42 -10 -86 -4
-90 -21 -139 -59 -169 -29 -23 -44 -23 -54 0 -4 8 -15 28 -24 46 -10 20 -17
59 -18 108 -1 58 -5 78 -16 83 -8 3 -20 -2 -27 -11 -11 -15 -18 -15 -91 3 -43
11 -87 20 -97 20 -32 0 -162 44 -282 95 -16 7 -41 16 -54 20 -67 20 -208 97
-346 188 -95 63 -141 113 -188 207 -48 99 -124 305 -137 376 -7 38 -16 78 -20
89 -4 11 -13 36 -20 55 -7 19 -14 67 -16 105 -2 39 -8 81 -13 95 -14 37 -21
122 -26 319 -6 215 2 299 30 315 30 16 34 25 41 89 l7 58 38 -6 c26 -5 53 -1
83 10 49 19 47 15 61 145 6 52 4 58 -29 96 -30 36 -32 42 -20 59 25 34 17 71
-23 105 -21 17 -50 34 -65 37 -27 5 -37 26 -19 38 5 3 12 18 16 34 5 23 146
181 161 181 3 0 18 15 35 34 16 19 55 49 86 68 30 18 72 43 92 55 51 32 79 43
105 43 12 0 26 4 32 10 30 30 369 45 462 20z m-854 -108 c27 -9 51 -22 53 -28
2 -6 -19 -25 -46 -43 -62 -40 -138 -138 -164 -211 -26 -72 -31 -77 -67 -72
-25 4 -37 -3 -75 -42 -38 -38 -44 -49 -36 -65 8 -14 6 -22 -8 -35 -30 -27 -49
-19 -76 34 -30 58 -34 148 -9 195 8 16 13 38 10 47 -2 11 3 22 14 28 10 6 22
20 26 32 18 58 107 136 189 166 44 16 133 13 189 -6z m-593 -29 c12 -33 -13
-53 -66 -53 -38 0 -44 3 -49 26 -8 31 -10 30 34 42 49 15 72 10 81 -15z m147
-97 c-12 -28 -38 -42 -38 -22 0 28 12 46 31 46 16 0 17 -3 7 -24z m-190 -8 c4
-22 -58 -54 -70 -36 -12 20 -10 26 20 42 31 18 46 16 50 -6z m1 -64 c-12 -15
-69 -20 -69 -5 0 10 61 30 73 23 4 -2 3 -10 -4 -18z m36 -44 c0 -8 -18 -23
-39 -33 -32 -15 -40 -16 -47 -5 -15 22 -5 43 19 44 12 1 26 4 29 8 12 11 38 2
38 -14z m9 -58 c6 -11 -4 -24 -31 -39 -33 -19 -45 -16 -41 9 2 14 13 25 28 29
35 10 38 10 44 1z m390 -111 c3 -5 14 -7 25 -4 19 5 94 -28 106 -46 10 -17
-19 -51 -50 -60 -50 -13 -149 25 -161 61 -8 27 17 58 48 58 15 0 29 -4 32 -9z
m-67 -126 c44 -22 123 -35 150 -24 17 6 29 3 53 -17 28 -24 30 -30 30 -100 0
-88 -17 -114 -75 -114 -22 0 -43 8 -55 20 -11 11 -31 20 -44 20 -14 0 -28 5
-31 10 -3 6 -29 10 -57 10 -43 0 -54 4 -79 31 -46 49 -32 122 30 158 43 25 41
25 78 6z m56 -252 c12 -7 -3 -106 -18 -122 -11 -11 -22 -12 -46 -5 -40 12 -58
37 -43 62 6 10 15 32 19 50 6 31 8 32 43 26 21 -4 41 -9 45 -11z m-176 -385
c15 -7 45 -23 66 -35 35 -22 37 -26 37 -73 0 -58 -11 -62 -75 -31 -33 16 -40
26 -56 77 -26 83 -26 85 28 62z m2477 -1144 c26 -10 18 -38 -21 -76 -41 -39
-73 -58 -97 -58 -12 0 -13 6 -6 28 4 15 11 40 15 55 8 38 69 66 109 51z
m-1953 -248 c13 -16 26 -22 39 -19 11 3 20 3 20 0 0 -3 -21 -32 -48 -64 -26
-32 -60 -75 -75 -95 -15 -21 -37 -38 -47 -38 -22 0 -40 28 -40 61 0 23 107
179 123 179 5 0 18 -11 28 -24z"/>
<path d="M6320 3581 c-19 -4 -53 -20 -75 -35 -44 -30 -97 -94 -89 -107 10 -17
37 -9 61 17 20 22 29 25 56 19 18 -4 39 -8 47 -8 19 -3 25 28 7 44 -12 11 -9
16 17 29 17 8 32 23 34 33 4 18 -2 19 -58 8z"/>
<path d="M5211 3526 c-95 -43 -186 -124 -227 -202 -64 -121 -85 -290 -46 -375
26 -56 146 -191 182 -204 15 -6 33 -15 41 -21 8 -6 28 -14 44 -17 168 -34 188
-36 205 -27 10 6 30 10 44 10 15 0 34 4 44 9 9 5 48 24 85 42 85 41 149 108
167 176 7 26 21 80 32 118 27 94 21 194 -18 273 -29 61 -152 192 -180 192 -8
0 -29 8 -47 17 -44 23 -100 35 -182 39 -62 3 -78 0 -144 -30z m283 -39 c123
-39 236 -170 250 -289 12 -108 -37 -271 -100 -335 -13 -13 -24 -26 -24 -29 0
-21 -104 -82 -165 -97 -65 -17 -165 -13 -210 7 -101 45 -211 126 -244 179 -33
54 -47 147 -33 226 11 63 44 159 60 171 4 3 20 23 37 45 16 22 39 48 50 58 25
22 132 80 165 89 40 11 138 0 214 -25z"/>
<path d="M5210 3257 c-34 -11 -47 -20 -90 -59 -18 -16 -18 -19 -1 -67 21 -59
37 -81 62 -81 11 0 19 -4 19 -9 0 -19 68 -33 104 -21 65 21 92 78 69 144 -27
79 -92 116 -163 93z m62 -54 c18 -22 1 -43 -34 -43 -34 0 -65 30 -53 51 9 13
74 8 87 -8z m-42 -82 c0 -12 -20 -25 -27 -18 -7 7 6 27 18 27 5 0 9 -4 9 -9z"/>
<path d="M5089 1903 c0 -5 -3 -19 -5 -33 -8 -51 -5 -169 6 -209 14 -52 47 -76
94 -67 50 9 81 73 85 171 1 22 9 57 17 77 14 31 14 40 4 53 -15 18 -36 20 -46
3 -11 -18 -33 -129 -34 -171 0 -44 -24 -97 -44 -97 -36 0 -46 62 -33 200 3 32
1 60 -5 68 -11 13 -37 17 -39 5z"/>
<path d="M3428 2783 c-32 -37 -36 -55 -21 -90 8 -20 13 -61 12 -96 -1 -34 0
-84 3 -112 4 -32 0 -68 -11 -100 l-16 -50 -69 -8 c-60 -6 -77 -13 -123 -49
-79 -60 -111 -88 -161 -137 -43 -42 -45 -43 -81 -33 -62 19 -86 21 -101 12
-17 -11 -17 -11 48 -93 42 -54 43 -55 32 -103 -6 -27 -13 -82 -15 -124 l-4
-75 -51 -1 c-28 -1 -61 -6 -73 -12 -12 -5 -29 -12 -38 -15 -17 -5 -22 -30 -35
-147 -3 -30 -8 -59 -11 -64 -3 -5 -7 -59 -8 -120 -2 -61 -7 -149 -12 -196 -4
-47 -7 -147 -7 -224 2 -174 1 -172 134 -181 52 -4 97 -8 99 -10 10 -10 -16
-25 -86 -50 -43 -15 -83 -31 -88 -35 -6 -5 -37 -10 -70 -11 l-60 -3 4 58 c2
32 -2 70 -9 85 -7 14 -17 37 -23 51 -14 30 -115 84 -131 71 -11 -9 -81 -12
-235 -8 l-85 2 -52 -65 c-29 -35 -54 -76 -57 -90 -2 -14 -7 -32 -11 -41 -20
-46 101 -117 226 -135 26 -3 53 -12 59 -20 6 -8 20 -14 31 -14 10 0 36 -9 56
-19 29 -15 71 -21 177 -27 77 -4 143 -7 146 -7 3 1 41 5 85 8 43 4 97 15 119
25 22 10 56 24 75 31 19 7 41 21 48 31 7 10 18 18 23 18 13 0 124 75 161 108
32 29 52 30 233 8 72 -9 164 -16 205 -16 41 0 90 -4 108 -9 28 -9 43 -5 110
29 42 22 103 51 135 65 31 15 62 36 68 47 6 11 13 62 15 112 2 50 8 141 14
201 5 61 12 178 14 260 2 83 7 158 11 167 11 28 -28 71 -77 86 -23 8 -62 22
-84 32 l-41 18 9 56 c8 44 7 65 -6 103 -23 67 -20 87 20 147 61 92 31 130 -69
87 l-47 -20 -44 58 c-25 32 -77 86 -116 120 -68 58 -74 61 -121 60 -27 -1 -51
0 -54 2 -2 3 -6 85 -8 183 -3 160 -2 178 14 187 30 16 33 48 8 75 -27 28 -69
31 -91 7z m66 -47 c-3 -7 -16 -18 -30 -24 -22 -11 -24 -10 -24 17 0 16 6 31
13 34 19 7 47 -12 41 -27z m-34 -387 c0 -19 -5 -29 -15 -29 -15 0 -22 50 -9
63 12 12 24 -4 24 -34z m111 -76 c52 -11 165 -92 189 -137 7 -14 17 -26 21
-26 11 0 69 -145 69 -172 0 -13 7 -41 15 -63 18 -51 18 -135 0 -159 -13 -17
-19 -17 -59 -7 -45 11 -174 15 -353 12 -51 -1 -93 1 -93 5 0 6 36 69 47 83 2
3 25 4 52 2 64 -3 78 12 86 94 10 92 7 97 -62 89 -75 -9 -212 -6 -305 6 -40 5
-76 6 -79 2 -4 -4 -9 -38 -12 -75 -6 -63 -5 -68 16 -77 12 -5 32 -17 45 -27
l23 -19 -23 -41 c-27 -49 -32 -51 -118 -44 l-65 6 1 50 c1 28 7 79 14 115 6
36 13 80 14 98 2 20 11 38 24 48 12 8 22 23 22 33 0 18 17 34 134 131 89 74
245 102 397 73z m-590 -206 c0 -4 -5 -15 -10 -25 -8 -13 -14 -15 -28 -6 -10 6
-19 20 -21 31 -3 18 1 20 28 14 17 -3 31 -9 31 -14z m944 -27 c-33 -65 -46
-66 -59 -5 -6 28 -4 32 26 41 58 19 60 17 33 -36z m-555 -89 l125 2 3 -42 c3
-45 -10 -71 -37 -71 -14 0 -14 2 -1 10 12 7 12 13 4 27 -9 15 -27 19 -95 21
-46 1 -106 7 -134 12 -56 10 -82 -2 -52 -24 37 -28 11 -56 -28 -30 -26 17 -27
21 -16 105 1 3 25 2 54 -3 28 -5 108 -8 177 -7z m16 -110 c-13 -14 -36 -53
-51 -86 -26 -55 -28 -69 -27 -170 1 -60 8 -139 17 -175 51 -222 55 -298 16
-385 -10 -22 -21 -53 -25 -69 -10 -40 -79 -140 -145 -210 -50 -52 -178 -146
-200 -146 -4 0 -23 -7 -41 -16 -81 -41 -340 -53 -490 -23 -93 19 -181 83 -196
144 -8 30 9 82 39 119 21 26 29 29 96 31 39 2 78 9 86 15 24 20 83 -24 107
-79 32 -74 5 -161 -51 -161 -56 0 -101 20 -126 58 -28 41 -33 82 -10 82 8 0
20 9 27 20 7 11 19 20 25 20 11 0 11 -4 1 -20 -7 -11 -18 -20 -25 -20 -33 0
-3 -78 37 -100 29 -15 68 13 76 55 6 35 -9 75 -28 75 -6 0 -19 7 -29 16 -25
22 -64 11 -106 -31 -36 -36 -35 -45 12 -122 36 -61 152 -93 203 -57 17 12 35
14 75 9 42 -5 65 -2 122 20 38 14 74 30 79 35 6 6 19 10 29 10 17 0 34 11 94
60 7 6 17 10 24 10 22 0 69 35 69 52 0 9 9 22 20 28 12 6 25 21 30 33 6 12 14
29 19 37 76 120 101 191 100 281 0 94 -43 317 -70 371 -15 29 -11 104 7 118
11 10 14 23 9 50 -5 28 -1 43 19 73 15 21 26 44 26 51 0 21 8 23 95 23 l85 -1
-24 -25z m431 -177 c29 -3 54 -8 57 -12 3 -6 -4 -137 -34 -632 -6 -96 -13
-186 -17 -200 -4 -14 -7 -34 -7 -45 -1 -17 -8 -20 -41 -20 -105 1 -248 15
-260 25 -8 7 -40 10 -77 9 l-63 -3 3 50 c2 27 3 64 3 82 1 17 5 32 10 32 5 0
9 -8 9 -17 0 -9 3 -13 7 -10 22 23 -2 370 -31 438 -14 34 -32 292 -21 310 5 8
368 3 462 -7z m-697 -42 c0 -27 7 -74 16 -103 8 -30 19 -70 24 -89 5 -19 14
-56 20 -82 7 -26 13 -95 13 -155 2 -110 -8 -146 -49 -194 -8 -8 -19 -31 -26
-50 -15 -41 -40 -73 -88 -113 -33 -27 -37 -28 -105 -21 -38 4 -94 9 -123 10
-30 2 -56 6 -59 9 -7 7 -7 230 0 286 3 25 8 117 12 205 6 167 22 313 35 330 5
6 78 11 169 13 l161 3 0 -49z m873 17 c77 -23 111 -45 99 -63 -4 -6 -8 -29 -8
-51 -1 -22 -9 -133 -18 -247 -9 -114 -16 -240 -16 -279 0 -78 -16 -139 -37
-139 -7 0 -13 -4 -13 -10 0 -14 -87 -53 -101 -45 -6 4 -15 1 -20 -6 -16 -27
-22 2 -10 49 6 26 16 133 21 237 5 105 14 246 21 315 10 117 9 183 -7 238 -8
28 -1 28 89 1z m-1713 -769 c0 -4 -6 -10 -13 -13 -7 -2 -25 -28 -41 -56 -22
-42 -26 -59 -21 -91 4 -21 13 -44 21 -51 21 -17 18 -43 -3 -34 -10 4 -39 15
-64 24 -106 38 -125 77 -69 141 16 19 29 40 30 45 0 12 37 38 64 45 25 7 96 0
96 -10z m1058 -2 c1 -13 4 -38 8 -55 5 -29 4 -33 -14 -33 -15 0 -21 8 -25 33
-4 32 9 77 24 77 4 0 7 -10 7 -22z m-855 -131 c7 -20 -8 -41 -26 -34 -8 3 -17
15 -20 26 -4 17 -1 21 18 21 13 0 25 -6 28 -13z"/>
<path d="M3563 1382 c-38 -29 -46 -67 -22 -106 27 -46 60 -66 107 -66 42 0 64
17 81 62 13 35 -8 88 -43 112 -33 21 -95 20 -123 -2z m123 -44 c13 -21 -7 -75
-32 -89 -25 -13 -28 -12 -55 19 -36 40 -36 55 -4 81 22 16 31 18 55 9 17 -5
33 -14 36 -20z"/>
<path d="M2890 1390 c-15 -21 -20 -41 -18 -67 3 -34 8 -41 53 -65 64 -34 89
-34 114 -2 26 34 27 69 1 122 -20 42 -21 42 -75 42 -48 0 -56 -3 -75 -30z m85
-6 c22 -9 47 -61 40 -84 -9 -27 -29 -31 -66 -11 -40 22 -47 43 -25 76 17 26
24 29 51 19z"/>
</g>
</svg>
